M48
; DRILL file {KiCad 7.0.7} date Tue Dec  5 14:15:27 2023
; FORMAT={-:-/ absolute / metric / decimal}
; #@! TF.CreationDate,2023-12-05T14:15:27+03:00
; #@! TF.GenerationSoftware,Kicad,Pcbnew,7.0.7
; #@! TF.FileFunction,Plated,1,2,PTH
FMAT,2
METRIC
; #@! TA.AperFunction,Plated,PTH,ViaDrill
T1C0.400
; #@! TA.AperFunction,Plated,PTH,ComponentDrill
T2C0.500
; #@! TA.AperFunction,Plated,PTH,ComponentDrill
T3C0.700
; #@! TA.AperFunction,Plated,PTH,ComponentDrill
T4C3.200
%
G90
G05
T1
X81.89Y-55.626
X83.464Y-71.78
X83.82Y-62.179
X86.855Y-66.802
X89.408Y-61.011
X90.373Y-57.048
X91.542Y-56.134
X97.79Y-67.056
X100.279Y-60.96
X101.092Y-56.693
X103.175Y-56.388
X105.525Y-67.412
X105.918Y-62.84
X106.629Y-58.471
X111.506Y-55.118
X111.811Y-65.583
X112.319Y-51.664
X113.436Y-54.051
X113.69Y-58.623
X113.741Y-56.845
X118.161Y-57.201
X119.35Y-71.991
X119.482Y-55.677
X121.92Y-53.335
X122.123Y-57.907
X123.545Y-54.808
T2
X81.482Y-77.559
X82.185Y-75.862
X82.185Y-79.256
X83.882Y-75.159
X83.882Y-79.959
X85.579Y-75.862
X85.579Y-79.256
X86.282Y-77.559
X117.418Y-77.559
X118.121Y-75.862
X118.121Y-79.256
X119.818Y-75.159
X119.818Y-79.959
X121.515Y-75.862
X121.515Y-79.256
X122.218Y-77.559
T3
X94.85Y-71.991
X94.85Y-73.991
X96.85Y-71.991
X96.85Y-73.991
X98.85Y-71.991
X98.85Y-73.991
X100.85Y-71.991
X100.85Y-73.991
X102.85Y-71.991
X102.85Y-73.991
X104.85Y-71.991
X104.85Y-73.991
X106.85Y-71.991
X106.85Y-73.991
X108.85Y-71.991
X108.85Y-73.991
T4
X83.882Y-77.559
X119.818Y-77.559
T0
M30
