%TF.GenerationSoftware,KiCad,Pcbnew,7.0.7*%
%TF.CreationDate,2023-12-05T14:15:23+03:00*%
%TF.ProjectId,InterceptRelay,496e7465-7263-4657-9074-52656c61792e,rev?*%
%TF.SameCoordinates,Original*%
%TF.FileFunction,Legend,Top*%
%TF.FilePolarity,Positive*%
%FSLAX46Y46*%
G04 Gerber Fmt 4.6, Leading zero omitted, Abs format (unit mm)*
G04 Created by KiCad (PCBNEW 7.0.7) date 2023-12-05 14:15:23*
%MOMM*%
%LPD*%
G01*
G04 APERTURE LIST*
%ADD10C,0.150000*%
%ADD11C,0.100000*%
%ADD12C,0.120000*%
G04 APERTURE END LIST*
D10*
X82891333Y-52524819D02*
X82558000Y-52048628D01*
X82319905Y-52524819D02*
X82319905Y-51524819D01*
X82319905Y-51524819D02*
X82700857Y-51524819D01*
X82700857Y-51524819D02*
X82796095Y-51572438D01*
X82796095Y-51572438D02*
X82843714Y-51620057D01*
X82843714Y-51620057D02*
X82891333Y-51715295D01*
X82891333Y-51715295D02*
X82891333Y-51858152D01*
X82891333Y-51858152D02*
X82843714Y-51953390D01*
X82843714Y-51953390D02*
X82796095Y-52001009D01*
X82796095Y-52001009D02*
X82700857Y-52048628D01*
X82700857Y-52048628D02*
X82319905Y-52048628D01*
X83462762Y-51953390D02*
X83367524Y-51905771D01*
X83367524Y-51905771D02*
X83319905Y-51858152D01*
X83319905Y-51858152D02*
X83272286Y-51762914D01*
X83272286Y-51762914D02*
X83272286Y-51715295D01*
X83272286Y-51715295D02*
X83319905Y-51620057D01*
X83319905Y-51620057D02*
X83367524Y-51572438D01*
X83367524Y-51572438D02*
X83462762Y-51524819D01*
X83462762Y-51524819D02*
X83653238Y-51524819D01*
X83653238Y-51524819D02*
X83748476Y-51572438D01*
X83748476Y-51572438D02*
X83796095Y-51620057D01*
X83796095Y-51620057D02*
X83843714Y-51715295D01*
X83843714Y-51715295D02*
X83843714Y-51762914D01*
X83843714Y-51762914D02*
X83796095Y-51858152D01*
X83796095Y-51858152D02*
X83748476Y-51905771D01*
X83748476Y-51905771D02*
X83653238Y-51953390D01*
X83653238Y-51953390D02*
X83462762Y-51953390D01*
X83462762Y-51953390D02*
X83367524Y-52001009D01*
X83367524Y-52001009D02*
X83319905Y-52048628D01*
X83319905Y-52048628D02*
X83272286Y-52143866D01*
X83272286Y-52143866D02*
X83272286Y-52334342D01*
X83272286Y-52334342D02*
X83319905Y-52429580D01*
X83319905Y-52429580D02*
X83367524Y-52477200D01*
X83367524Y-52477200D02*
X83462762Y-52524819D01*
X83462762Y-52524819D02*
X83653238Y-52524819D01*
X83653238Y-52524819D02*
X83748476Y-52477200D01*
X83748476Y-52477200D02*
X83796095Y-52429580D01*
X83796095Y-52429580D02*
X83843714Y-52334342D01*
X83843714Y-52334342D02*
X83843714Y-52143866D01*
X83843714Y-52143866D02*
X83796095Y-52048628D01*
X83796095Y-52048628D02*
X83748476Y-52001009D01*
X83748476Y-52001009D02*
X83653238Y-51953390D01*
X89679542Y-73614419D02*
X89346209Y-73138228D01*
X89108114Y-73614419D02*
X89108114Y-72614419D01*
X89108114Y-72614419D02*
X89489066Y-72614419D01*
X89489066Y-72614419D02*
X89584304Y-72662038D01*
X89584304Y-72662038D02*
X89631923Y-72709657D01*
X89631923Y-72709657D02*
X89679542Y-72804895D01*
X89679542Y-72804895D02*
X89679542Y-72947752D01*
X89679542Y-72947752D02*
X89631923Y-73042990D01*
X89631923Y-73042990D02*
X89584304Y-73090609D01*
X89584304Y-73090609D02*
X89489066Y-73138228D01*
X89489066Y-73138228D02*
X89108114Y-73138228D01*
X90631923Y-73614419D02*
X90060495Y-73614419D01*
X90346209Y-73614419D02*
X90346209Y-72614419D01*
X90346209Y-72614419D02*
X90250971Y-72757276D01*
X90250971Y-72757276D02*
X90155733Y-72852514D01*
X90155733Y-72852514D02*
X90060495Y-72900133D01*
X91250971Y-72614419D02*
X91346209Y-72614419D01*
X91346209Y-72614419D02*
X91441447Y-72662038D01*
X91441447Y-72662038D02*
X91489066Y-72709657D01*
X91489066Y-72709657D02*
X91536685Y-72804895D01*
X91536685Y-72804895D02*
X91584304Y-72995371D01*
X91584304Y-72995371D02*
X91584304Y-73233466D01*
X91584304Y-73233466D02*
X91536685Y-73423942D01*
X91536685Y-73423942D02*
X91489066Y-73519180D01*
X91489066Y-73519180D02*
X91441447Y-73566800D01*
X91441447Y-73566800D02*
X91346209Y-73614419D01*
X91346209Y-73614419D02*
X91250971Y-73614419D01*
X91250971Y-73614419D02*
X91155733Y-73566800D01*
X91155733Y-73566800D02*
X91108114Y-73519180D01*
X91108114Y-73519180D02*
X91060495Y-73423942D01*
X91060495Y-73423942D02*
X91012876Y-73233466D01*
X91012876Y-73233466D02*
X91012876Y-72995371D01*
X91012876Y-72995371D02*
X91060495Y-72804895D01*
X91060495Y-72804895D02*
X91108114Y-72709657D01*
X91108114Y-72709657D02*
X91155733Y-72662038D01*
X91155733Y-72662038D02*
X91250971Y-72614419D01*
X114518333Y-54861619D02*
X114185000Y-54385428D01*
X113946905Y-54861619D02*
X113946905Y-53861619D01*
X113946905Y-53861619D02*
X114327857Y-53861619D01*
X114327857Y-53861619D02*
X114423095Y-53909238D01*
X114423095Y-53909238D02*
X114470714Y-53956857D01*
X114470714Y-53956857D02*
X114518333Y-54052095D01*
X114518333Y-54052095D02*
X114518333Y-54194952D01*
X114518333Y-54194952D02*
X114470714Y-54290190D01*
X114470714Y-54290190D02*
X114423095Y-54337809D01*
X114423095Y-54337809D02*
X114327857Y-54385428D01*
X114327857Y-54385428D02*
X113946905Y-54385428D01*
X115423095Y-53861619D02*
X114946905Y-53861619D01*
X114946905Y-53861619D02*
X114899286Y-54337809D01*
X114899286Y-54337809D02*
X114946905Y-54290190D01*
X114946905Y-54290190D02*
X115042143Y-54242571D01*
X115042143Y-54242571D02*
X115280238Y-54242571D01*
X115280238Y-54242571D02*
X115375476Y-54290190D01*
X115375476Y-54290190D02*
X115423095Y-54337809D01*
X115423095Y-54337809D02*
X115470714Y-54433047D01*
X115470714Y-54433047D02*
X115470714Y-54671142D01*
X115470714Y-54671142D02*
X115423095Y-54766380D01*
X115423095Y-54766380D02*
X115375476Y-54814000D01*
X115375476Y-54814000D02*
X115280238Y-54861619D01*
X115280238Y-54861619D02*
X115042143Y-54861619D01*
X115042143Y-54861619D02*
X114946905Y-54814000D01*
X114946905Y-54814000D02*
X114899286Y-54766380D01*
X117643333Y-54716017D02*
X117310000Y-54239826D01*
X117071905Y-54716017D02*
X117071905Y-53716017D01*
X117071905Y-53716017D02*
X117452857Y-53716017D01*
X117452857Y-53716017D02*
X117548095Y-53763636D01*
X117548095Y-53763636D02*
X117595714Y-53811255D01*
X117595714Y-53811255D02*
X117643333Y-53906493D01*
X117643333Y-53906493D02*
X117643333Y-54049350D01*
X117643333Y-54049350D02*
X117595714Y-54144588D01*
X117595714Y-54144588D02*
X117548095Y-54192207D01*
X117548095Y-54192207D02*
X117452857Y-54239826D01*
X117452857Y-54239826D02*
X117071905Y-54239826D01*
X118500476Y-54049350D02*
X118500476Y-54716017D01*
X118262381Y-53668398D02*
X118024286Y-54382683D01*
X118024286Y-54382683D02*
X118643333Y-54382683D01*
X121409619Y-52185866D02*
X120933428Y-52519199D01*
X121409619Y-52757294D02*
X120409619Y-52757294D01*
X120409619Y-52757294D02*
X120409619Y-52376342D01*
X120409619Y-52376342D02*
X120457238Y-52281104D01*
X120457238Y-52281104D02*
X120504857Y-52233485D01*
X120504857Y-52233485D02*
X120600095Y-52185866D01*
X120600095Y-52185866D02*
X120742952Y-52185866D01*
X120742952Y-52185866D02*
X120838190Y-52233485D01*
X120838190Y-52233485D02*
X120885809Y-52281104D01*
X120885809Y-52281104D02*
X120933428Y-52376342D01*
X120933428Y-52376342D02*
X120933428Y-52757294D01*
X120409619Y-51852532D02*
X120409619Y-51233485D01*
X120409619Y-51233485D02*
X120790571Y-51566818D01*
X120790571Y-51566818D02*
X120790571Y-51423961D01*
X120790571Y-51423961D02*
X120838190Y-51328723D01*
X120838190Y-51328723D02*
X120885809Y-51281104D01*
X120885809Y-51281104D02*
X120981047Y-51233485D01*
X120981047Y-51233485D02*
X121219142Y-51233485D01*
X121219142Y-51233485D02*
X121314380Y-51281104D01*
X121314380Y-51281104D02*
X121362000Y-51328723D01*
X121362000Y-51328723D02*
X121409619Y-51423961D01*
X121409619Y-51423961D02*
X121409619Y-51709675D01*
X121409619Y-51709675D02*
X121362000Y-51804913D01*
X121362000Y-51804913D02*
X121314380Y-51852532D01*
X120689819Y-67099292D02*
X119689819Y-67099292D01*
X119689819Y-67099292D02*
X119689819Y-66861197D01*
X119689819Y-66861197D02*
X119737438Y-66718340D01*
X119737438Y-66718340D02*
X119832676Y-66623102D01*
X119832676Y-66623102D02*
X119927914Y-66575483D01*
X119927914Y-66575483D02*
X120118390Y-66527864D01*
X120118390Y-66527864D02*
X120261247Y-66527864D01*
X120261247Y-66527864D02*
X120451723Y-66575483D01*
X120451723Y-66575483D02*
X120546961Y-66623102D01*
X120546961Y-66623102D02*
X120642200Y-66718340D01*
X120642200Y-66718340D02*
X120689819Y-66861197D01*
X120689819Y-66861197D02*
X120689819Y-67099292D01*
X119785057Y-66146911D02*
X119737438Y-66099292D01*
X119737438Y-66099292D02*
X119689819Y-66004054D01*
X119689819Y-66004054D02*
X119689819Y-65765959D01*
X119689819Y-65765959D02*
X119737438Y-65670721D01*
X119737438Y-65670721D02*
X119785057Y-65623102D01*
X119785057Y-65623102D02*
X119880295Y-65575483D01*
X119880295Y-65575483D02*
X119975533Y-65575483D01*
X119975533Y-65575483D02*
X120118390Y-65623102D01*
X120118390Y-65623102D02*
X120689819Y-66194530D01*
X120689819Y-66194530D02*
X120689819Y-65575483D01*
X93305333Y-52778819D02*
X92972000Y-52302628D01*
X92733905Y-52778819D02*
X92733905Y-51778819D01*
X92733905Y-51778819D02*
X93114857Y-51778819D01*
X93114857Y-51778819D02*
X93210095Y-51826438D01*
X93210095Y-51826438D02*
X93257714Y-51874057D01*
X93257714Y-51874057D02*
X93305333Y-51969295D01*
X93305333Y-51969295D02*
X93305333Y-52112152D01*
X93305333Y-52112152D02*
X93257714Y-52207390D01*
X93257714Y-52207390D02*
X93210095Y-52255009D01*
X93210095Y-52255009D02*
X93114857Y-52302628D01*
X93114857Y-52302628D02*
X92733905Y-52302628D01*
X94162476Y-51778819D02*
X93972000Y-51778819D01*
X93972000Y-51778819D02*
X93876762Y-51826438D01*
X93876762Y-51826438D02*
X93829143Y-51874057D01*
X93829143Y-51874057D02*
X93733905Y-52016914D01*
X93733905Y-52016914D02*
X93686286Y-52207390D01*
X93686286Y-52207390D02*
X93686286Y-52588342D01*
X93686286Y-52588342D02*
X93733905Y-52683580D01*
X93733905Y-52683580D02*
X93781524Y-52731200D01*
X93781524Y-52731200D02*
X93876762Y-52778819D01*
X93876762Y-52778819D02*
X94067238Y-52778819D01*
X94067238Y-52778819D02*
X94162476Y-52731200D01*
X94162476Y-52731200D02*
X94210095Y-52683580D01*
X94210095Y-52683580D02*
X94257714Y-52588342D01*
X94257714Y-52588342D02*
X94257714Y-52350247D01*
X94257714Y-52350247D02*
X94210095Y-52255009D01*
X94210095Y-52255009D02*
X94162476Y-52207390D01*
X94162476Y-52207390D02*
X94067238Y-52159771D01*
X94067238Y-52159771D02*
X93876762Y-52159771D01*
X93876762Y-52159771D02*
X93781524Y-52207390D01*
X93781524Y-52207390D02*
X93733905Y-52255009D01*
X93733905Y-52255009D02*
X93686286Y-52350247D01*
X100593333Y-51999778D02*
X100545714Y-52047398D01*
X100545714Y-52047398D02*
X100402857Y-52095017D01*
X100402857Y-52095017D02*
X100307619Y-52095017D01*
X100307619Y-52095017D02*
X100164762Y-52047398D01*
X100164762Y-52047398D02*
X100069524Y-51952159D01*
X100069524Y-51952159D02*
X100021905Y-51856921D01*
X100021905Y-51856921D02*
X99974286Y-51666445D01*
X99974286Y-51666445D02*
X99974286Y-51523588D01*
X99974286Y-51523588D02*
X100021905Y-51333112D01*
X100021905Y-51333112D02*
X100069524Y-51237874D01*
X100069524Y-51237874D02*
X100164762Y-51142636D01*
X100164762Y-51142636D02*
X100307619Y-51095017D01*
X100307619Y-51095017D02*
X100402857Y-51095017D01*
X100402857Y-51095017D02*
X100545714Y-51142636D01*
X100545714Y-51142636D02*
X100593333Y-51190255D01*
X101450476Y-51428350D02*
X101450476Y-52095017D01*
X101212381Y-51047398D02*
X100974286Y-51761683D01*
X100974286Y-51761683D02*
X101593333Y-51761683D01*
X101756380Y-55792666D02*
X101804000Y-55840285D01*
X101804000Y-55840285D02*
X101851619Y-55983142D01*
X101851619Y-55983142D02*
X101851619Y-56078380D01*
X101851619Y-56078380D02*
X101804000Y-56221237D01*
X101804000Y-56221237D02*
X101708761Y-56316475D01*
X101708761Y-56316475D02*
X101613523Y-56364094D01*
X101613523Y-56364094D02*
X101423047Y-56411713D01*
X101423047Y-56411713D02*
X101280190Y-56411713D01*
X101280190Y-56411713D02*
X101089714Y-56364094D01*
X101089714Y-56364094D02*
X100994476Y-56316475D01*
X100994476Y-56316475D02*
X100899238Y-56221237D01*
X100899238Y-56221237D02*
X100851619Y-56078380D01*
X100851619Y-56078380D02*
X100851619Y-55983142D01*
X100851619Y-55983142D02*
X100899238Y-55840285D01*
X100899238Y-55840285D02*
X100946857Y-55792666D01*
X100851619Y-54887904D02*
X100851619Y-55364094D01*
X100851619Y-55364094D02*
X101327809Y-55411713D01*
X101327809Y-55411713D02*
X101280190Y-55364094D01*
X101280190Y-55364094D02*
X101232571Y-55268856D01*
X101232571Y-55268856D02*
X101232571Y-55030761D01*
X101232571Y-55030761D02*
X101280190Y-54935523D01*
X101280190Y-54935523D02*
X101327809Y-54887904D01*
X101327809Y-54887904D02*
X101423047Y-54840285D01*
X101423047Y-54840285D02*
X101661142Y-54840285D01*
X101661142Y-54840285D02*
X101756380Y-54887904D01*
X101756380Y-54887904D02*
X101804000Y-54935523D01*
X101804000Y-54935523D02*
X101851619Y-55030761D01*
X101851619Y-55030761D02*
X101851619Y-55268856D01*
X101851619Y-55268856D02*
X101804000Y-55364094D01*
X101804000Y-55364094D02*
X101756380Y-55411713D01*
X113999180Y-53049466D02*
X114046800Y-53097085D01*
X114046800Y-53097085D02*
X114094419Y-53239942D01*
X114094419Y-53239942D02*
X114094419Y-53335180D01*
X114094419Y-53335180D02*
X114046800Y-53478037D01*
X114046800Y-53478037D02*
X113951561Y-53573275D01*
X113951561Y-53573275D02*
X113856323Y-53620894D01*
X113856323Y-53620894D02*
X113665847Y-53668513D01*
X113665847Y-53668513D02*
X113522990Y-53668513D01*
X113522990Y-53668513D02*
X113332514Y-53620894D01*
X113332514Y-53620894D02*
X113237276Y-53573275D01*
X113237276Y-53573275D02*
X113142038Y-53478037D01*
X113142038Y-53478037D02*
X113094419Y-53335180D01*
X113094419Y-53335180D02*
X113094419Y-53239942D01*
X113094419Y-53239942D02*
X113142038Y-53097085D01*
X113142038Y-53097085D02*
X113189657Y-53049466D01*
X113094419Y-52716132D02*
X113094419Y-52097085D01*
X113094419Y-52097085D02*
X113475371Y-52430418D01*
X113475371Y-52430418D02*
X113475371Y-52287561D01*
X113475371Y-52287561D02*
X113522990Y-52192323D01*
X113522990Y-52192323D02*
X113570609Y-52144704D01*
X113570609Y-52144704D02*
X113665847Y-52097085D01*
X113665847Y-52097085D02*
X113903942Y-52097085D01*
X113903942Y-52097085D02*
X113999180Y-52144704D01*
X113999180Y-52144704D02*
X114046800Y-52192323D01*
X114046800Y-52192323D02*
X114094419Y-52287561D01*
X114094419Y-52287561D02*
X114094419Y-52573275D01*
X114094419Y-52573275D02*
X114046800Y-52668513D01*
X114046800Y-52668513D02*
X113999180Y-52716132D01*
X118349733Y-57560380D02*
X118302114Y-57608000D01*
X118302114Y-57608000D02*
X118159257Y-57655619D01*
X118159257Y-57655619D02*
X118064019Y-57655619D01*
X118064019Y-57655619D02*
X117921162Y-57608000D01*
X117921162Y-57608000D02*
X117825924Y-57512761D01*
X117825924Y-57512761D02*
X117778305Y-57417523D01*
X117778305Y-57417523D02*
X117730686Y-57227047D01*
X117730686Y-57227047D02*
X117730686Y-57084190D01*
X117730686Y-57084190D02*
X117778305Y-56893714D01*
X117778305Y-56893714D02*
X117825924Y-56798476D01*
X117825924Y-56798476D02*
X117921162Y-56703238D01*
X117921162Y-56703238D02*
X118064019Y-56655619D01*
X118064019Y-56655619D02*
X118159257Y-56655619D01*
X118159257Y-56655619D02*
X118302114Y-56703238D01*
X118302114Y-56703238D02*
X118349733Y-56750857D01*
X118730686Y-56750857D02*
X118778305Y-56703238D01*
X118778305Y-56703238D02*
X118873543Y-56655619D01*
X118873543Y-56655619D02*
X119111638Y-56655619D01*
X119111638Y-56655619D02*
X119206876Y-56703238D01*
X119206876Y-56703238D02*
X119254495Y-56750857D01*
X119254495Y-56750857D02*
X119302114Y-56846095D01*
X119302114Y-56846095D02*
X119302114Y-56941333D01*
X119302114Y-56941333D02*
X119254495Y-57084190D01*
X119254495Y-57084190D02*
X118683067Y-57655619D01*
X118683067Y-57655619D02*
X119302114Y-57655619D01*
X82789733Y-55426780D02*
X82742114Y-55474400D01*
X82742114Y-55474400D02*
X82599257Y-55522019D01*
X82599257Y-55522019D02*
X82504019Y-55522019D01*
X82504019Y-55522019D02*
X82361162Y-55474400D01*
X82361162Y-55474400D02*
X82265924Y-55379161D01*
X82265924Y-55379161D02*
X82218305Y-55283923D01*
X82218305Y-55283923D02*
X82170686Y-55093447D01*
X82170686Y-55093447D02*
X82170686Y-54950590D01*
X82170686Y-54950590D02*
X82218305Y-54760114D01*
X82218305Y-54760114D02*
X82265924Y-54664876D01*
X82265924Y-54664876D02*
X82361162Y-54569638D01*
X82361162Y-54569638D02*
X82504019Y-54522019D01*
X82504019Y-54522019D02*
X82599257Y-54522019D01*
X82599257Y-54522019D02*
X82742114Y-54569638D01*
X82742114Y-54569638D02*
X82789733Y-54617257D01*
X83361162Y-54950590D02*
X83265924Y-54902971D01*
X83265924Y-54902971D02*
X83218305Y-54855352D01*
X83218305Y-54855352D02*
X83170686Y-54760114D01*
X83170686Y-54760114D02*
X83170686Y-54712495D01*
X83170686Y-54712495D02*
X83218305Y-54617257D01*
X83218305Y-54617257D02*
X83265924Y-54569638D01*
X83265924Y-54569638D02*
X83361162Y-54522019D01*
X83361162Y-54522019D02*
X83551638Y-54522019D01*
X83551638Y-54522019D02*
X83646876Y-54569638D01*
X83646876Y-54569638D02*
X83694495Y-54617257D01*
X83694495Y-54617257D02*
X83742114Y-54712495D01*
X83742114Y-54712495D02*
X83742114Y-54760114D01*
X83742114Y-54760114D02*
X83694495Y-54855352D01*
X83694495Y-54855352D02*
X83646876Y-54902971D01*
X83646876Y-54902971D02*
X83551638Y-54950590D01*
X83551638Y-54950590D02*
X83361162Y-54950590D01*
X83361162Y-54950590D02*
X83265924Y-54998209D01*
X83265924Y-54998209D02*
X83218305Y-55045828D01*
X83218305Y-55045828D02*
X83170686Y-55141066D01*
X83170686Y-55141066D02*
X83170686Y-55331542D01*
X83170686Y-55331542D02*
X83218305Y-55426780D01*
X83218305Y-55426780D02*
X83265924Y-55474400D01*
X83265924Y-55474400D02*
X83361162Y-55522019D01*
X83361162Y-55522019D02*
X83551638Y-55522019D01*
X83551638Y-55522019D02*
X83646876Y-55474400D01*
X83646876Y-55474400D02*
X83694495Y-55426780D01*
X83694495Y-55426780D02*
X83742114Y-55331542D01*
X83742114Y-55331542D02*
X83742114Y-55141066D01*
X83742114Y-55141066D02*
X83694495Y-55045828D01*
X83694495Y-55045828D02*
X83646876Y-54998209D01*
X83646876Y-54998209D02*
X83551638Y-54950590D01*
X123804419Y-59657866D02*
X123328228Y-59991199D01*
X123804419Y-60229294D02*
X122804419Y-60229294D01*
X122804419Y-60229294D02*
X122804419Y-59848342D01*
X122804419Y-59848342D02*
X122852038Y-59753104D01*
X122852038Y-59753104D02*
X122899657Y-59705485D01*
X122899657Y-59705485D02*
X122994895Y-59657866D01*
X122994895Y-59657866D02*
X123137752Y-59657866D01*
X123137752Y-59657866D02*
X123232990Y-59705485D01*
X123232990Y-59705485D02*
X123280609Y-59753104D01*
X123280609Y-59753104D02*
X123328228Y-59848342D01*
X123328228Y-59848342D02*
X123328228Y-60229294D01*
X123804419Y-58705485D02*
X123804419Y-59276913D01*
X123804419Y-58991199D02*
X122804419Y-58991199D01*
X122804419Y-58991199D02*
X122947276Y-59086437D01*
X122947276Y-59086437D02*
X123042514Y-59181675D01*
X123042514Y-59181675D02*
X123090133Y-59276913D01*
X93102133Y-55680780D02*
X93054514Y-55728400D01*
X93054514Y-55728400D02*
X92911657Y-55776019D01*
X92911657Y-55776019D02*
X92816419Y-55776019D01*
X92816419Y-55776019D02*
X92673562Y-55728400D01*
X92673562Y-55728400D02*
X92578324Y-55633161D01*
X92578324Y-55633161D02*
X92530705Y-55537923D01*
X92530705Y-55537923D02*
X92483086Y-55347447D01*
X92483086Y-55347447D02*
X92483086Y-55204590D01*
X92483086Y-55204590D02*
X92530705Y-55014114D01*
X92530705Y-55014114D02*
X92578324Y-54918876D01*
X92578324Y-54918876D02*
X92673562Y-54823638D01*
X92673562Y-54823638D02*
X92816419Y-54776019D01*
X92816419Y-54776019D02*
X92911657Y-54776019D01*
X92911657Y-54776019D02*
X93054514Y-54823638D01*
X93054514Y-54823638D02*
X93102133Y-54871257D01*
X93578324Y-55776019D02*
X93768800Y-55776019D01*
X93768800Y-55776019D02*
X93864038Y-55728400D01*
X93864038Y-55728400D02*
X93911657Y-55680780D01*
X93911657Y-55680780D02*
X94006895Y-55537923D01*
X94006895Y-55537923D02*
X94054514Y-55347447D01*
X94054514Y-55347447D02*
X94054514Y-54966495D01*
X94054514Y-54966495D02*
X94006895Y-54871257D01*
X94006895Y-54871257D02*
X93959276Y-54823638D01*
X93959276Y-54823638D02*
X93864038Y-54776019D01*
X93864038Y-54776019D02*
X93673562Y-54776019D01*
X93673562Y-54776019D02*
X93578324Y-54823638D01*
X93578324Y-54823638D02*
X93530705Y-54871257D01*
X93530705Y-54871257D02*
X93483086Y-54966495D01*
X93483086Y-54966495D02*
X93483086Y-55204590D01*
X93483086Y-55204590D02*
X93530705Y-55299828D01*
X93530705Y-55299828D02*
X93578324Y-55347447D01*
X93578324Y-55347447D02*
X93673562Y-55395066D01*
X93673562Y-55395066D02*
X93864038Y-55395066D01*
X93864038Y-55395066D02*
X93959276Y-55347447D01*
X93959276Y-55347447D02*
X94006895Y-55299828D01*
X94006895Y-55299828D02*
X94054514Y-55204590D01*
X84754819Y-64758102D02*
X85564342Y-64758102D01*
X85564342Y-64758102D02*
X85659580Y-64710483D01*
X85659580Y-64710483D02*
X85707200Y-64662864D01*
X85707200Y-64662864D02*
X85754819Y-64567626D01*
X85754819Y-64567626D02*
X85754819Y-64377150D01*
X85754819Y-64377150D02*
X85707200Y-64281912D01*
X85707200Y-64281912D02*
X85659580Y-64234293D01*
X85659580Y-64234293D02*
X85564342Y-64186674D01*
X85564342Y-64186674D02*
X84754819Y-64186674D01*
X84754819Y-63805721D02*
X84754819Y-63186674D01*
X84754819Y-63186674D02*
X85135771Y-63520007D01*
X85135771Y-63520007D02*
X85135771Y-63377150D01*
X85135771Y-63377150D02*
X85183390Y-63281912D01*
X85183390Y-63281912D02*
X85231009Y-63234293D01*
X85231009Y-63234293D02*
X85326247Y-63186674D01*
X85326247Y-63186674D02*
X85564342Y-63186674D01*
X85564342Y-63186674D02*
X85659580Y-63234293D01*
X85659580Y-63234293D02*
X85707200Y-63281912D01*
X85707200Y-63281912D02*
X85754819Y-63377150D01*
X85754819Y-63377150D02*
X85754819Y-63662864D01*
X85754819Y-63662864D02*
X85707200Y-63758102D01*
X85707200Y-63758102D02*
X85659580Y-63805721D01*
X92829142Y-54201219D02*
X92495809Y-53725028D01*
X92257714Y-54201219D02*
X92257714Y-53201219D01*
X92257714Y-53201219D02*
X92638666Y-53201219D01*
X92638666Y-53201219D02*
X92733904Y-53248838D01*
X92733904Y-53248838D02*
X92781523Y-53296457D01*
X92781523Y-53296457D02*
X92829142Y-53391695D01*
X92829142Y-53391695D02*
X92829142Y-53534552D01*
X92829142Y-53534552D02*
X92781523Y-53629790D01*
X92781523Y-53629790D02*
X92733904Y-53677409D01*
X92733904Y-53677409D02*
X92638666Y-53725028D01*
X92638666Y-53725028D02*
X92257714Y-53725028D01*
X93781523Y-54201219D02*
X93210095Y-54201219D01*
X93495809Y-54201219D02*
X93495809Y-53201219D01*
X93495809Y-53201219D02*
X93400571Y-53344076D01*
X93400571Y-53344076D02*
X93305333Y-53439314D01*
X93305333Y-53439314D02*
X93210095Y-53486933D01*
X94733904Y-54201219D02*
X94162476Y-54201219D01*
X94448190Y-54201219D02*
X94448190Y-53201219D01*
X94448190Y-53201219D02*
X94352952Y-53344076D01*
X94352952Y-53344076D02*
X94257714Y-53439314D01*
X94257714Y-53439314D02*
X94162476Y-53486933D01*
X106527695Y-53810819D02*
X106527695Y-54620342D01*
X106527695Y-54620342D02*
X106575314Y-54715580D01*
X106575314Y-54715580D02*
X106622933Y-54763200D01*
X106622933Y-54763200D02*
X106718171Y-54810819D01*
X106718171Y-54810819D02*
X106908647Y-54810819D01*
X106908647Y-54810819D02*
X107003885Y-54763200D01*
X107003885Y-54763200D02*
X107051504Y-54715580D01*
X107051504Y-54715580D02*
X107099123Y-54620342D01*
X107099123Y-54620342D02*
X107099123Y-53810819D01*
X108003885Y-54144152D02*
X108003885Y-54810819D01*
X107765790Y-53763200D02*
X107527695Y-54477485D01*
X107527695Y-54477485D02*
X108146742Y-54477485D01*
X123111419Y-69013294D02*
X122111419Y-69013294D01*
X122111419Y-69013294D02*
X122111419Y-68775199D01*
X122111419Y-68775199D02*
X122159038Y-68632342D01*
X122159038Y-68632342D02*
X122254276Y-68537104D01*
X122254276Y-68537104D02*
X122349514Y-68489485D01*
X122349514Y-68489485D02*
X122539990Y-68441866D01*
X122539990Y-68441866D02*
X122682847Y-68441866D01*
X122682847Y-68441866D02*
X122873323Y-68489485D01*
X122873323Y-68489485D02*
X122968561Y-68537104D01*
X122968561Y-68537104D02*
X123063800Y-68632342D01*
X123063800Y-68632342D02*
X123111419Y-68775199D01*
X123111419Y-68775199D02*
X123111419Y-69013294D01*
X122111419Y-68108532D02*
X122111419Y-67489485D01*
X122111419Y-67489485D02*
X122492371Y-67822818D01*
X122492371Y-67822818D02*
X122492371Y-67679961D01*
X122492371Y-67679961D02*
X122539990Y-67584723D01*
X122539990Y-67584723D02*
X122587609Y-67537104D01*
X122587609Y-67537104D02*
X122682847Y-67489485D01*
X122682847Y-67489485D02*
X122920942Y-67489485D01*
X122920942Y-67489485D02*
X123016180Y-67537104D01*
X123016180Y-67537104D02*
X123063800Y-67584723D01*
X123063800Y-67584723D02*
X123111419Y-67679961D01*
X123111419Y-67679961D02*
X123111419Y-67965675D01*
X123111419Y-67965675D02*
X123063800Y-68060913D01*
X123063800Y-68060913D02*
X123016180Y-68108532D01*
X120804419Y-61729294D02*
X119804419Y-61729294D01*
X119804419Y-61729294D02*
X119804419Y-61491199D01*
X119804419Y-61491199D02*
X119852038Y-61348342D01*
X119852038Y-61348342D02*
X119947276Y-61253104D01*
X119947276Y-61253104D02*
X120042514Y-61205485D01*
X120042514Y-61205485D02*
X120232990Y-61157866D01*
X120232990Y-61157866D02*
X120375847Y-61157866D01*
X120375847Y-61157866D02*
X120566323Y-61205485D01*
X120566323Y-61205485D02*
X120661561Y-61253104D01*
X120661561Y-61253104D02*
X120756800Y-61348342D01*
X120756800Y-61348342D02*
X120804419Y-61491199D01*
X120804419Y-61491199D02*
X120804419Y-61729294D01*
X120804419Y-60205485D02*
X120804419Y-60776913D01*
X120804419Y-60491199D02*
X119804419Y-60491199D01*
X119804419Y-60491199D02*
X119947276Y-60586437D01*
X119947276Y-60586437D02*
X120042514Y-60681675D01*
X120042514Y-60681675D02*
X120090133Y-60776913D01*
X122990780Y-53608266D02*
X123038400Y-53655885D01*
X123038400Y-53655885D02*
X123086019Y-53798742D01*
X123086019Y-53798742D02*
X123086019Y-53893980D01*
X123086019Y-53893980D02*
X123038400Y-54036837D01*
X123038400Y-54036837D02*
X122943161Y-54132075D01*
X122943161Y-54132075D02*
X122847923Y-54179694D01*
X122847923Y-54179694D02*
X122657447Y-54227313D01*
X122657447Y-54227313D02*
X122514590Y-54227313D01*
X122514590Y-54227313D02*
X122324114Y-54179694D01*
X122324114Y-54179694D02*
X122228876Y-54132075D01*
X122228876Y-54132075D02*
X122133638Y-54036837D01*
X122133638Y-54036837D02*
X122086019Y-53893980D01*
X122086019Y-53893980D02*
X122086019Y-53798742D01*
X122086019Y-53798742D02*
X122133638Y-53655885D01*
X122133638Y-53655885D02*
X122181257Y-53608266D01*
X123086019Y-52655885D02*
X123086019Y-53227313D01*
X123086019Y-52941599D02*
X122086019Y-52941599D01*
X122086019Y-52941599D02*
X122228876Y-53036837D01*
X122228876Y-53036837D02*
X122324114Y-53132075D01*
X122324114Y-53132075D02*
X122371733Y-53227313D01*
X84497942Y-73606819D02*
X84164609Y-73130628D01*
X83926514Y-73606819D02*
X83926514Y-72606819D01*
X83926514Y-72606819D02*
X84307466Y-72606819D01*
X84307466Y-72606819D02*
X84402704Y-72654438D01*
X84402704Y-72654438D02*
X84450323Y-72702057D01*
X84450323Y-72702057D02*
X84497942Y-72797295D01*
X84497942Y-72797295D02*
X84497942Y-72940152D01*
X84497942Y-72940152D02*
X84450323Y-73035390D01*
X84450323Y-73035390D02*
X84402704Y-73083009D01*
X84402704Y-73083009D02*
X84307466Y-73130628D01*
X84307466Y-73130628D02*
X83926514Y-73130628D01*
X85450323Y-73606819D02*
X84878895Y-73606819D01*
X85164609Y-73606819D02*
X85164609Y-72606819D01*
X85164609Y-72606819D02*
X85069371Y-72749676D01*
X85069371Y-72749676D02*
X84974133Y-72844914D01*
X84974133Y-72844914D02*
X84878895Y-72892533D01*
X85831276Y-72702057D02*
X85878895Y-72654438D01*
X85878895Y-72654438D02*
X85974133Y-72606819D01*
X85974133Y-72606819D02*
X86212228Y-72606819D01*
X86212228Y-72606819D02*
X86307466Y-72654438D01*
X86307466Y-72654438D02*
X86355085Y-72702057D01*
X86355085Y-72702057D02*
X86402704Y-72797295D01*
X86402704Y-72797295D02*
X86402704Y-72892533D01*
X86402704Y-72892533D02*
X86355085Y-73035390D01*
X86355085Y-73035390D02*
X85783657Y-73606819D01*
X85783657Y-73606819D02*
X86402704Y-73606819D01*
X86091733Y-52677219D02*
X85758400Y-52201028D01*
X85520305Y-52677219D02*
X85520305Y-51677219D01*
X85520305Y-51677219D02*
X85901257Y-51677219D01*
X85901257Y-51677219D02*
X85996495Y-51724838D01*
X85996495Y-51724838D02*
X86044114Y-51772457D01*
X86044114Y-51772457D02*
X86091733Y-51867695D01*
X86091733Y-51867695D02*
X86091733Y-52010552D01*
X86091733Y-52010552D02*
X86044114Y-52105790D01*
X86044114Y-52105790D02*
X85996495Y-52153409D01*
X85996495Y-52153409D02*
X85901257Y-52201028D01*
X85901257Y-52201028D02*
X85520305Y-52201028D01*
X86567924Y-52677219D02*
X86758400Y-52677219D01*
X86758400Y-52677219D02*
X86853638Y-52629600D01*
X86853638Y-52629600D02*
X86901257Y-52581980D01*
X86901257Y-52581980D02*
X86996495Y-52439123D01*
X86996495Y-52439123D02*
X87044114Y-52248647D01*
X87044114Y-52248647D02*
X87044114Y-51867695D01*
X87044114Y-51867695D02*
X86996495Y-51772457D01*
X86996495Y-51772457D02*
X86948876Y-51724838D01*
X86948876Y-51724838D02*
X86853638Y-51677219D01*
X86853638Y-51677219D02*
X86663162Y-51677219D01*
X86663162Y-51677219D02*
X86567924Y-51724838D01*
X86567924Y-51724838D02*
X86520305Y-51772457D01*
X86520305Y-51772457D02*
X86472686Y-51867695D01*
X86472686Y-51867695D02*
X86472686Y-52105790D01*
X86472686Y-52105790D02*
X86520305Y-52201028D01*
X86520305Y-52201028D02*
X86567924Y-52248647D01*
X86567924Y-52248647D02*
X86663162Y-52296266D01*
X86663162Y-52296266D02*
X86853638Y-52296266D01*
X86853638Y-52296266D02*
X86948876Y-52248647D01*
X86948876Y-52248647D02*
X86996495Y-52201028D01*
X86996495Y-52201028D02*
X87044114Y-52105790D01*
X113714819Y-64674292D02*
X112714819Y-64674292D01*
X113714819Y-64102864D02*
X113143390Y-64531435D01*
X112714819Y-64102864D02*
X113286247Y-64674292D01*
X113714819Y-63150483D02*
X113714819Y-63721911D01*
X113714819Y-63436197D02*
X112714819Y-63436197D01*
X112714819Y-63436197D02*
X112857676Y-63531435D01*
X112857676Y-63531435D02*
X112952914Y-63626673D01*
X112952914Y-63626673D02*
X113000533Y-63721911D01*
X95839819Y-64798102D02*
X96649342Y-64798102D01*
X96649342Y-64798102D02*
X96744580Y-64750483D01*
X96744580Y-64750483D02*
X96792200Y-64702864D01*
X96792200Y-64702864D02*
X96839819Y-64607626D01*
X96839819Y-64607626D02*
X96839819Y-64417150D01*
X96839819Y-64417150D02*
X96792200Y-64321912D01*
X96792200Y-64321912D02*
X96744580Y-64274293D01*
X96744580Y-64274293D02*
X96649342Y-64226674D01*
X96649342Y-64226674D02*
X95839819Y-64226674D01*
X96839819Y-63226674D02*
X96839819Y-63798102D01*
X96839819Y-63512388D02*
X95839819Y-63512388D01*
X95839819Y-63512388D02*
X95982676Y-63607626D01*
X95982676Y-63607626D02*
X96077914Y-63702864D01*
X96077914Y-63702864D02*
X96125533Y-63798102D01*
X89850933Y-52073980D02*
X89803314Y-52121600D01*
X89803314Y-52121600D02*
X89660457Y-52169219D01*
X89660457Y-52169219D02*
X89565219Y-52169219D01*
X89565219Y-52169219D02*
X89422362Y-52121600D01*
X89422362Y-52121600D02*
X89327124Y-52026361D01*
X89327124Y-52026361D02*
X89279505Y-51931123D01*
X89279505Y-51931123D02*
X89231886Y-51740647D01*
X89231886Y-51740647D02*
X89231886Y-51597790D01*
X89231886Y-51597790D02*
X89279505Y-51407314D01*
X89279505Y-51407314D02*
X89327124Y-51312076D01*
X89327124Y-51312076D02*
X89422362Y-51216838D01*
X89422362Y-51216838D02*
X89565219Y-51169219D01*
X89565219Y-51169219D02*
X89660457Y-51169219D01*
X89660457Y-51169219D02*
X89803314Y-51216838D01*
X89803314Y-51216838D02*
X89850933Y-51264457D01*
X90708076Y-51169219D02*
X90517600Y-51169219D01*
X90517600Y-51169219D02*
X90422362Y-51216838D01*
X90422362Y-51216838D02*
X90374743Y-51264457D01*
X90374743Y-51264457D02*
X90279505Y-51407314D01*
X90279505Y-51407314D02*
X90231886Y-51597790D01*
X90231886Y-51597790D02*
X90231886Y-51978742D01*
X90231886Y-51978742D02*
X90279505Y-52073980D01*
X90279505Y-52073980D02*
X90327124Y-52121600D01*
X90327124Y-52121600D02*
X90422362Y-52169219D01*
X90422362Y-52169219D02*
X90612838Y-52169219D01*
X90612838Y-52169219D02*
X90708076Y-52121600D01*
X90708076Y-52121600D02*
X90755695Y-52073980D01*
X90755695Y-52073980D02*
X90803314Y-51978742D01*
X90803314Y-51978742D02*
X90803314Y-51740647D01*
X90803314Y-51740647D02*
X90755695Y-51645409D01*
X90755695Y-51645409D02*
X90708076Y-51597790D01*
X90708076Y-51597790D02*
X90612838Y-51550171D01*
X90612838Y-51550171D02*
X90422362Y-51550171D01*
X90422362Y-51550171D02*
X90327124Y-51597790D01*
X90327124Y-51597790D02*
X90279505Y-51645409D01*
X90279505Y-51645409D02*
X90231886Y-51740647D01*
X123804419Y-58157866D02*
X123328228Y-58491199D01*
X123804419Y-58729294D02*
X122804419Y-58729294D01*
X122804419Y-58729294D02*
X122804419Y-58348342D01*
X122804419Y-58348342D02*
X122852038Y-58253104D01*
X122852038Y-58253104D02*
X122899657Y-58205485D01*
X122899657Y-58205485D02*
X122994895Y-58157866D01*
X122994895Y-58157866D02*
X123137752Y-58157866D01*
X123137752Y-58157866D02*
X123232990Y-58205485D01*
X123232990Y-58205485D02*
X123280609Y-58253104D01*
X123280609Y-58253104D02*
X123328228Y-58348342D01*
X123328228Y-58348342D02*
X123328228Y-58729294D01*
X122899657Y-57776913D02*
X122852038Y-57729294D01*
X122852038Y-57729294D02*
X122804419Y-57634056D01*
X122804419Y-57634056D02*
X122804419Y-57395961D01*
X122804419Y-57395961D02*
X122852038Y-57300723D01*
X122852038Y-57300723D02*
X122899657Y-57253104D01*
X122899657Y-57253104D02*
X122994895Y-57205485D01*
X122994895Y-57205485D02*
X123090133Y-57205485D01*
X123090133Y-57205485D02*
X123232990Y-57253104D01*
X123232990Y-57253104D02*
X123804419Y-57824532D01*
X123804419Y-57824532D02*
X123804419Y-57205485D01*
X96505733Y-52677219D02*
X96172400Y-52201028D01*
X95934305Y-52677219D02*
X95934305Y-51677219D01*
X95934305Y-51677219D02*
X96315257Y-51677219D01*
X96315257Y-51677219D02*
X96410495Y-51724838D01*
X96410495Y-51724838D02*
X96458114Y-51772457D01*
X96458114Y-51772457D02*
X96505733Y-51867695D01*
X96505733Y-51867695D02*
X96505733Y-52010552D01*
X96505733Y-52010552D02*
X96458114Y-52105790D01*
X96458114Y-52105790D02*
X96410495Y-52153409D01*
X96410495Y-52153409D02*
X96315257Y-52201028D01*
X96315257Y-52201028D02*
X95934305Y-52201028D01*
X96839067Y-51677219D02*
X97505733Y-51677219D01*
X97505733Y-51677219D02*
X97077162Y-52677219D01*
X82516742Y-53896419D02*
X82183409Y-53420228D01*
X81945314Y-53896419D02*
X81945314Y-52896419D01*
X81945314Y-52896419D02*
X82326266Y-52896419D01*
X82326266Y-52896419D02*
X82421504Y-52944038D01*
X82421504Y-52944038D02*
X82469123Y-52991657D01*
X82469123Y-52991657D02*
X82516742Y-53086895D01*
X82516742Y-53086895D02*
X82516742Y-53229752D01*
X82516742Y-53229752D02*
X82469123Y-53324990D01*
X82469123Y-53324990D02*
X82421504Y-53372609D01*
X82421504Y-53372609D02*
X82326266Y-53420228D01*
X82326266Y-53420228D02*
X81945314Y-53420228D01*
X83469123Y-53896419D02*
X82897695Y-53896419D01*
X83183409Y-53896419D02*
X83183409Y-52896419D01*
X83183409Y-52896419D02*
X83088171Y-53039276D01*
X83088171Y-53039276D02*
X82992933Y-53134514D01*
X82992933Y-53134514D02*
X82897695Y-53182133D01*
X83802457Y-52896419D02*
X84421504Y-52896419D01*
X84421504Y-52896419D02*
X84088171Y-53277371D01*
X84088171Y-53277371D02*
X84231028Y-53277371D01*
X84231028Y-53277371D02*
X84326266Y-53324990D01*
X84326266Y-53324990D02*
X84373885Y-53372609D01*
X84373885Y-53372609D02*
X84421504Y-53467847D01*
X84421504Y-53467847D02*
X84421504Y-53705942D01*
X84421504Y-53705942D02*
X84373885Y-53801180D01*
X84373885Y-53801180D02*
X84326266Y-53848800D01*
X84326266Y-53848800D02*
X84231028Y-53896419D01*
X84231028Y-53896419D02*
X83945314Y-53896419D01*
X83945314Y-53896419D02*
X83850076Y-53848800D01*
X83850076Y-53848800D02*
X83802457Y-53801180D01*
X91088380Y-55894266D02*
X91136000Y-55941885D01*
X91136000Y-55941885D02*
X91183619Y-56084742D01*
X91183619Y-56084742D02*
X91183619Y-56179980D01*
X91183619Y-56179980D02*
X91136000Y-56322837D01*
X91136000Y-56322837D02*
X91040761Y-56418075D01*
X91040761Y-56418075D02*
X90945523Y-56465694D01*
X90945523Y-56465694D02*
X90755047Y-56513313D01*
X90755047Y-56513313D02*
X90612190Y-56513313D01*
X90612190Y-56513313D02*
X90421714Y-56465694D01*
X90421714Y-56465694D02*
X90326476Y-56418075D01*
X90326476Y-56418075D02*
X90231238Y-56322837D01*
X90231238Y-56322837D02*
X90183619Y-56179980D01*
X90183619Y-56179980D02*
X90183619Y-56084742D01*
X90183619Y-56084742D02*
X90231238Y-55941885D01*
X90231238Y-55941885D02*
X90278857Y-55894266D01*
X90183619Y-55560932D02*
X90183619Y-54894266D01*
X90183619Y-54894266D02*
X91183619Y-55322837D01*
D11*
%TO.C,J2*%
X109849600Y-84691200D02*
X93849600Y-84691200D01*
D12*
%TO.C,R8*%
X86519258Y-55594698D02*
X86044742Y-55594698D01*
X86519258Y-54549698D02*
X86044742Y-54549698D01*
%TO.C,R10*%
X90559658Y-72252100D02*
X90085142Y-72252100D01*
X90559658Y-71207100D02*
X90085142Y-71207100D01*
%TO.C,R5*%
X114922258Y-56108698D02*
X114447742Y-56108698D01*
X114922258Y-55063698D02*
X114447742Y-55063698D01*
%TO.C,R4*%
X118122258Y-56108698D02*
X117647742Y-56108698D01*
X118122258Y-55063698D02*
X117647742Y-55063698D01*
%TO.C,R3*%
X120433700Y-54463258D02*
X120433700Y-53988742D01*
X121478700Y-54463258D02*
X121478700Y-53988742D01*
%TO.C,D2*%
X121197500Y-64038698D02*
X119197500Y-64038698D01*
X121197500Y-64038698D02*
X121197500Y-68048698D01*
X119197500Y-64038698D02*
X119197500Y-68048698D01*
%TO.C,R6*%
X96996258Y-55627198D02*
X96521742Y-55627198D01*
X96996258Y-54582198D02*
X96521742Y-54582198D01*
%TO.C,C4*%
X100900580Y-53550198D02*
X100619420Y-53550198D01*
X100900580Y-52530198D02*
X100619420Y-52530198D01*
%TO.C,C5*%
X100508000Y-55693618D02*
X100508000Y-55974778D01*
X99488000Y-55693618D02*
X99488000Y-55974778D01*
%TO.C,C3*%
X112845000Y-53145618D02*
X112845000Y-53426778D01*
X111825000Y-53145618D02*
X111825000Y-53426778D01*
%TO.C,C2*%
X116194420Y-56676198D02*
X116475580Y-56676198D01*
X116194420Y-57696198D02*
X116475580Y-57696198D01*
%TO.C,C8*%
X83044580Y-57171198D02*
X82763420Y-57171198D01*
X83044580Y-56151198D02*
X82763420Y-56151198D01*
%TO.C,JP3*%
X104010000Y-64711198D02*
X104610000Y-64711198D01*
X105310000Y-65411198D02*
X105310000Y-66811198D01*
X103310000Y-66811198D02*
X103310000Y-65411198D01*
X104610000Y-67511198D02*
X104010000Y-67511198D01*
X105310000Y-65411198D02*
G75*
G03*
X104610000Y-64711198I-699999J1D01*
G01*
X104010000Y-64711198D02*
G75*
G03*
X103310000Y-65411198I-1J-699999D01*
G01*
X104610000Y-67511198D02*
G75*
G03*
X105310000Y-66811198I0J700000D01*
G01*
X103310000Y-66811198D02*
G75*
G03*
X104010000Y-67511198I700000J0D01*
G01*
%TO.C,R1*%
X122075000Y-62060956D02*
X122075000Y-61586440D01*
X123120000Y-62060956D02*
X123120000Y-61586440D01*
%TO.C,C9*%
X93450580Y-57171198D02*
X93169420Y-57171198D01*
X93450580Y-56151198D02*
X93169420Y-56151198D01*
%TO.C,U3*%
X80445000Y-67121198D02*
X90725000Y-67121198D01*
X90725000Y-67121198D02*
X90725000Y-60651198D01*
X80445000Y-64886198D02*
X80445000Y-67121198D01*
X80445000Y-60651198D02*
X80445000Y-62886198D01*
X90725000Y-60651198D02*
X80445000Y-60651198D01*
X80445000Y-64886198D02*
G75*
G03*
X80445000Y-62886198I0J1000000D01*
G01*
%TO.C,JP1*%
X118899600Y-71691200D02*
X118899600Y-72291200D01*
X118349600Y-70491200D02*
X117749600Y-70491200D01*
X118249600Y-72991200D02*
X115449600Y-72991200D01*
X118049600Y-70791200D02*
X118349600Y-70491200D01*
X118049600Y-70791200D02*
X117749600Y-70491200D01*
X115449600Y-70991200D02*
X118249600Y-70991200D01*
X114799600Y-72291200D02*
X114799600Y-71691200D01*
X118199600Y-72991200D02*
G75*
G03*
X118899600Y-72291200I1J699999D01*
G01*
X118899600Y-71691200D02*
G75*
G03*
X118199600Y-70991200I-699999J1D01*
G01*
X114799600Y-72291200D02*
G75*
G03*
X115499600Y-72991200I700000J0D01*
G01*
X115499600Y-70991200D02*
G75*
G03*
X114799600Y-71691200I0J-700000D01*
G01*
%TO.C,JP2*%
X103985000Y-60586198D02*
X104585000Y-60586198D01*
X105285000Y-61286198D02*
X105285000Y-62686198D01*
X103285000Y-62686198D02*
X103285000Y-61286198D01*
X104585000Y-63386198D02*
X103985000Y-63386198D01*
X105285000Y-61286198D02*
G75*
G03*
X104585000Y-60586198I-699999J1D01*
G01*
X103985000Y-60586198D02*
G75*
G03*
X103285000Y-61286198I-1J-699999D01*
G01*
X104585000Y-63386198D02*
G75*
G03*
X105285000Y-62686198I0J700000D01*
G01*
X103285000Y-62686198D02*
G75*
G03*
X103985000Y-63386198I700000J0D01*
G01*
%TO.C,R11*%
X96996258Y-57183698D02*
X96521742Y-57183698D01*
X96996258Y-56138698D02*
X96521742Y-56138698D01*
%TO.C,U4*%
X107260000Y-51851198D02*
X103810000Y-51851198D01*
X107260000Y-51851198D02*
X109210000Y-51851198D01*
X107260000Y-56971198D02*
X105310000Y-56971198D01*
X107260000Y-56971198D02*
X109210000Y-56971198D01*
%TO.C,D3*%
X121862500Y-67021198D02*
X123332500Y-67021198D01*
X123332500Y-67021198D02*
X123332500Y-64736198D01*
X121862500Y-64736198D02*
X121862500Y-67021198D01*
%TO.C,D1*%
X119197500Y-63558698D02*
X121197500Y-63558698D01*
X119197500Y-63558698D02*
X119197500Y-59548698D01*
X121197500Y-63558698D02*
X121197500Y-59548698D01*
%TO.C,C1*%
X122121200Y-55766580D02*
X122121200Y-55485420D01*
X123141200Y-55766580D02*
X123141200Y-55485420D01*
%TO.C,R12*%
X84903542Y-71207100D02*
X85378058Y-71207100D01*
X84903542Y-72252100D02*
X85378058Y-72252100D01*
%TO.C,R9*%
X86044742Y-53025698D02*
X86519258Y-53025698D01*
X86044742Y-54070698D02*
X86519258Y-54070698D01*
%TO.C,K1*%
X118130000Y-60201198D02*
X117670000Y-60201198D01*
X117670000Y-60201198D02*
X117670000Y-59081198D01*
X116010000Y-60201198D02*
X116010000Y-59081198D01*
X116010000Y-60201198D02*
X112590000Y-60201198D01*
X103310000Y-60201198D02*
X102850000Y-60201198D01*
X117440000Y-63681198D02*
X116240000Y-63681198D01*
X116640000Y-63681198D02*
X117040000Y-64381198D01*
X116240000Y-63681198D02*
X116240000Y-64381198D01*
X117440000Y-64381198D02*
X117440000Y-63681198D01*
X116240000Y-64381198D02*
X117440000Y-64381198D01*
X118130000Y-67981198D02*
X118130000Y-60201198D01*
X118130000Y-67981198D02*
X117670000Y-67981198D01*
X116010000Y-67981198D02*
X112590000Y-67981198D01*
X103310000Y-67981198D02*
X102850000Y-67981198D01*
X102850000Y-67981198D02*
X102850000Y-60201198D01*
%TO.C,U1*%
X91345000Y-67121198D02*
X101625000Y-67121198D01*
X101625000Y-67121198D02*
X101625000Y-60651198D01*
X91345000Y-64886198D02*
X91345000Y-67121198D01*
X91345000Y-60651198D02*
X91345000Y-62886198D01*
X101625000Y-60651198D02*
X91345000Y-60651198D01*
X91345000Y-64886198D02*
G75*
G03*
X91345000Y-62886198I0J1000000D01*
G01*
%TO.C,C6*%
X90232580Y-53550198D02*
X89951420Y-53550198D01*
X90232580Y-52530198D02*
X89951420Y-52530198D01*
%TO.C,R2*%
X120433700Y-57563258D02*
X120433700Y-57088742D01*
X121478700Y-57563258D02*
X121478700Y-57088742D01*
%TO.C,R7*%
X96521742Y-53025698D02*
X96996258Y-53025698D01*
X96521742Y-54070698D02*
X96996258Y-54070698D01*
%TO.C,R13*%
X86519258Y-57118698D02*
X86044742Y-57118698D01*
X86519258Y-56073698D02*
X86044742Y-56073698D01*
%TO.C,C7*%
X89840000Y-55693618D02*
X89840000Y-55974778D01*
X88820000Y-55693618D02*
X88820000Y-55974778D01*
%TD*%
M02*
