%TF.GenerationSoftware,KiCad,Pcbnew,7.0.7*%
%TF.CreationDate,2023-12-05T14:15:23+03:00*%
%TF.ProjectId,InterceptRelay,496e7465-7263-4657-9074-52656c61792e,rev?*%
%TF.SameCoordinates,Original*%
%TF.FileFunction,Copper,L2,Bot*%
%TF.FilePolarity,Positive*%
%FSLAX46Y46*%
G04 Gerber Fmt 4.6, Leading zero omitted, Abs format (unit mm)*
G04 Created by KiCad (PCBNEW 7.0.7) date 2023-12-05 14:15:23*
%MOMM*%
%LPD*%
G01*
G04 APERTURE LIST*
%TA.AperFunction,ComponentPad*%
%ADD10C,1.200000*%
%TD*%
%TA.AperFunction,ComponentPad*%
%ADD11C,0.800000*%
%TD*%
%TA.AperFunction,ComponentPad*%
%ADD12C,6.400000*%
%TD*%
%TA.AperFunction,ViaPad*%
%ADD13C,0.800000*%
%TD*%
%TA.AperFunction,Conductor*%
%ADD14C,0.500000*%
%TD*%
%TA.AperFunction,Conductor*%
%ADD15C,0.250000*%
%TD*%
G04 APERTURE END LIST*
D10*
%TO.P,J2,1,Pin_1*%
%TO.N,GND*%
X94849600Y-71991200D03*
%TO.P,J2,2,Pin_2*%
X94849600Y-73991200D03*
%TO.P,J2,3,Pin_3*%
X96849600Y-71991200D03*
%TO.P,J2,4,Pin_4*%
%TO.N,+5V*%
X96849600Y-73991200D03*
%TO.P,J2,5,Pin_5*%
%TO.N,CANL_int*%
X98849600Y-71991200D03*
%TO.P,J2,6,Pin_6*%
%TO.N,AI_1*%
X98849600Y-73991200D03*
%TO.P,J2,7,Pin_7*%
%TO.N,CANH_int*%
X100849600Y-71991200D03*
%TO.P,J2,8,Pin_8*%
%TO.N,AI_2*%
X100849600Y-73991200D03*
%TO.P,J2,9,Pin_9*%
%TO.N,GND*%
X102849600Y-71991200D03*
%TO.P,J2,10,Pin_10*%
X102849600Y-73991200D03*
%TO.P,J2,11,Pin_11*%
%TO.N,CANL_out*%
X104849600Y-71991200D03*
%TO.P,J2,12,Pin_12*%
%TO.N,CANH_out*%
X104849600Y-73991200D03*
%TO.P,J2,13,Pin_13*%
%TO.N,AI_1*%
X106849600Y-71991200D03*
%TO.P,J2,14,Pin_14*%
%TO.N,AI_2*%
X106849600Y-73991200D03*
%TO.P,J2,15,Pin_15*%
%TO.N,Relay_Highside*%
X108849600Y-71991200D03*
%TO.P,J2,16,Pin_16*%
%TO.N,Relay_Lowside*%
X108849600Y-73991200D03*
%TD*%
D11*
%TO.P,REF\u002A\u002A,1*%
%TO.N,N/C*%
X117417600Y-77559200D03*
X118120544Y-75862144D03*
X118120544Y-79256256D03*
X119817600Y-75159200D03*
D12*
X119817600Y-77559200D03*
D11*
X119817600Y-79959200D03*
X121514656Y-75862144D03*
X121514656Y-79256256D03*
X122217600Y-77559200D03*
%TD*%
%TO.P,REF\u002A\u002A,1*%
%TO.N,N/C*%
X81481600Y-77559200D03*
X82184544Y-75862144D03*
X82184544Y-79256256D03*
X83881600Y-75159200D03*
D12*
X83881600Y-77559200D03*
D11*
X83881600Y-79959200D03*
X85578656Y-75862144D03*
X85578656Y-79256256D03*
X86281600Y-77559200D03*
%TD*%
D13*
%TO.N,+5V*%
X83820000Y-62179200D03*
X112318800Y-51663600D03*
%TO.N,GND*%
X86855000Y-66802000D03*
X97790000Y-67056000D03*
X81889600Y-55626000D03*
X113436400Y-54051200D03*
X89408000Y-61010800D03*
X90373200Y-57048400D03*
X103174800Y-56388000D03*
X118160800Y-57200800D03*
X119349600Y-71991200D03*
X91541600Y-56134000D03*
X123545200Y-54808198D03*
X101092000Y-56692800D03*
X100279200Y-60960000D03*
%TO.N,AO_int_2*%
X111506000Y-55118000D03*
X106629200Y-58470800D03*
%TO.N,CANL_int*%
X119481600Y-55676800D03*
X105525500Y-67411600D03*
%TO.N,CANH_int*%
X105918000Y-62839600D03*
X113741200Y-56845200D03*
X83464400Y-71780400D03*
%TO.N,AI_1*%
X122122800Y-57906998D03*
X111810800Y-65582800D03*
%TO.N,AI_2*%
X113690400Y-58623200D03*
X121919600Y-53334998D03*
%TD*%
D14*
%TO.N,+5V*%
X81026000Y-59385200D02*
X81026000Y-53441600D01*
X82804000Y-51663600D02*
X112318800Y-51663600D01*
X81026000Y-53441600D02*
X82804000Y-51663600D01*
X83820000Y-62179200D02*
X81026000Y-59385200D01*
D15*
%TO.N,AO_int_2*%
X109982000Y-55118000D02*
X106629200Y-58470800D01*
X111506000Y-55118000D02*
X109982000Y-55118000D01*
%TO.N,CANL_int*%
X112115600Y-57759600D02*
X113944400Y-57759600D01*
X113944400Y-57759600D02*
X116027200Y-55676800D01*
X105525500Y-67411600D02*
X105525500Y-64349700D01*
X105525500Y-64349700D02*
X112115600Y-57759600D01*
X116027200Y-55676800D02*
X119481600Y-55676800D01*
%TO.N,CANH_int*%
X95839874Y-76555600D02*
X97774600Y-74620874D01*
X99849600Y-72991200D02*
X100849600Y-71991200D01*
X97774600Y-73758052D02*
X98541452Y-72991200D01*
X97774600Y-74620874D02*
X97774600Y-73758052D01*
X113741200Y-56845200D02*
X111912400Y-56845200D01*
X98541452Y-72991200D02*
X99849600Y-72991200D01*
X88087200Y-76555600D02*
X95839874Y-76555600D01*
X83464400Y-71932800D02*
X88087200Y-76555600D01*
X83464400Y-71780400D02*
X83464400Y-71932800D01*
X111912400Y-56845200D02*
X105918000Y-62839600D01*
%TO.N,AI_1*%
X115112800Y-60909200D02*
X111810800Y-64211200D01*
X101828600Y-72470348D02*
X101324748Y-72974200D01*
X99629652Y-73903000D02*
X98937800Y-73903000D01*
X102466452Y-71066200D02*
X101828600Y-71704052D01*
X101828600Y-71704052D02*
X101828600Y-72470348D01*
X111810800Y-64211200D02*
X111810800Y-65582800D01*
X100558452Y-72974200D02*
X99629652Y-73903000D01*
X101324748Y-72974200D02*
X100558452Y-72974200D01*
X106849600Y-71991200D02*
X105924600Y-71066200D01*
X119120598Y-60909200D02*
X115112800Y-60909200D01*
X98937800Y-73903000D02*
X98849600Y-73991200D01*
X122122800Y-57906998D02*
X119120598Y-60909200D01*
X105924600Y-71066200D02*
X102466452Y-71066200D01*
%TO.N,AI_2*%
X115163600Y-60096400D02*
X118668800Y-60096400D01*
X101788400Y-74930000D02*
X105910800Y-74930000D01*
X105910800Y-74930000D02*
X106849600Y-73991200D01*
X118668800Y-60096400D02*
X121919600Y-56845600D01*
X113690400Y-58623200D02*
X115163600Y-60096400D01*
X100849600Y-73991200D02*
X101788400Y-74930000D01*
X121919600Y-56845600D02*
X121919600Y-53334998D01*
%TD*%
%TA.AperFunction,Conductor*%
%TO.N,GND*%
G36*
X121351219Y-49991784D02*
G01*
X121483228Y-49998703D01*
X121666627Y-50009003D01*
X121672812Y-50009665D01*
X121825247Y-50033808D01*
X121987794Y-50061426D01*
X121993411Y-50062653D01*
X122146293Y-50103618D01*
X122238722Y-50130246D01*
X122301324Y-50148282D01*
X122306359Y-50149969D01*
X122455783Y-50207327D01*
X122603607Y-50268558D01*
X122608012Y-50270588D01*
X122673780Y-50304099D01*
X122751521Y-50343711D01*
X122827028Y-50385441D01*
X122891080Y-50420841D01*
X122894815Y-50423082D01*
X122969087Y-50471315D01*
X123030472Y-50511180D01*
X123117957Y-50573253D01*
X123160364Y-50603342D01*
X123163486Y-50605710D01*
X123288348Y-50706821D01*
X123290634Y-50708767D01*
X123408321Y-50813938D01*
X123410848Y-50816328D01*
X123524470Y-50929950D01*
X123526860Y-50932477D01*
X123632031Y-51050164D01*
X123633983Y-51052458D01*
X123687363Y-51118377D01*
X123735080Y-51177302D01*
X123737462Y-51180443D01*
X123829619Y-51310327D01*
X123883358Y-51393075D01*
X123917706Y-51445967D01*
X123919964Y-51449731D01*
X123997088Y-51589278D01*
X124070204Y-51732775D01*
X124072243Y-51737197D01*
X124133477Y-51885029D01*
X124190821Y-52034417D01*
X124192516Y-52039473D01*
X124237179Y-52194497D01*
X124278141Y-52347371D01*
X124279378Y-52353035D01*
X124306994Y-52515569D01*
X124331130Y-52667958D01*
X124331796Y-52674185D01*
X124342109Y-52857818D01*
X124349014Y-52989577D01*
X124349099Y-52992823D01*
X124349099Y-78989576D01*
X124349014Y-78992822D01*
X124342109Y-79124581D01*
X124331796Y-79308213D01*
X124331130Y-79314440D01*
X124306994Y-79466830D01*
X124279378Y-79629363D01*
X124278141Y-79635027D01*
X124237179Y-79787902D01*
X124192516Y-79942925D01*
X124190821Y-79947981D01*
X124133477Y-80097370D01*
X124072243Y-80245201D01*
X124070204Y-80249623D01*
X123997088Y-80393121D01*
X123919964Y-80532667D01*
X123917697Y-80536446D01*
X123829619Y-80672072D01*
X123737462Y-80801955D01*
X123735080Y-80805096D01*
X123633985Y-80929938D01*
X123632031Y-80932234D01*
X123526860Y-81049921D01*
X123524470Y-81052448D01*
X123410848Y-81166070D01*
X123408321Y-81168460D01*
X123290634Y-81273631D01*
X123288338Y-81275585D01*
X123163496Y-81376680D01*
X123160355Y-81379062D01*
X123030472Y-81471219D01*
X122894846Y-81559297D01*
X122891067Y-81561564D01*
X122751521Y-81638688D01*
X122608023Y-81711804D01*
X122603601Y-81713843D01*
X122455770Y-81775077D01*
X122306375Y-81832423D01*
X122301318Y-81834118D01*
X122146272Y-81878787D01*
X122099442Y-81891334D01*
X122067628Y-81895559D01*
X82237513Y-81984732D01*
X82234130Y-81984648D01*
X82216439Y-81983721D01*
X82032586Y-81973396D01*
X82026359Y-81972730D01*
X81873969Y-81948594D01*
X81711435Y-81920978D01*
X81705771Y-81919741D01*
X81552897Y-81878779D01*
X81397873Y-81834116D01*
X81392817Y-81832421D01*
X81243429Y-81775077D01*
X81095597Y-81713843D01*
X81091175Y-81711804D01*
X80947678Y-81638688D01*
X80808131Y-81561564D01*
X80804367Y-81559306D01*
X80751475Y-81524958D01*
X80668727Y-81471219D01*
X80538843Y-81379062D01*
X80535702Y-81376680D01*
X80410860Y-81275585D01*
X80408564Y-81273631D01*
X80290877Y-81168460D01*
X80288350Y-81166070D01*
X80174728Y-81052448D01*
X80172338Y-81049921D01*
X80067167Y-80932234D01*
X80065213Y-80929938D01*
X79964110Y-80805086D01*
X79961736Y-80801955D01*
X79869580Y-80672072D01*
X79837006Y-80621915D01*
X79781482Y-80536415D01*
X79779241Y-80532680D01*
X79743841Y-80468628D01*
X79702111Y-80393121D01*
X79662499Y-80315380D01*
X79628988Y-80249612D01*
X79626958Y-80245207D01*
X79565722Y-80097370D01*
X79508369Y-79947959D01*
X79506682Y-79942924D01*
X79462020Y-79787902D01*
X79456916Y-79768852D01*
X79421053Y-79635011D01*
X79419826Y-79629394D01*
X79392201Y-79466806D01*
X79368065Y-79314412D01*
X79367403Y-79308223D01*
X79358595Y-79151399D01*
X79358498Y-79147756D01*
X79363470Y-77559202D01*
X80476106Y-77559202D01*
X80496069Y-77927396D01*
X80496070Y-77927413D01*
X80555722Y-78291268D01*
X80555728Y-78291294D01*
X80654368Y-78646565D01*
X80654370Y-78646571D01*
X80790855Y-78989126D01*
X80790861Y-78989138D01*
X80963573Y-79314908D01*
X80963579Y-79314917D01*
X81170509Y-79620116D01*
X81183176Y-79635028D01*
X81409227Y-79901156D01*
X81676930Y-80154738D01*
X81970481Y-80377890D01*
X82286438Y-80567995D01*
X82286440Y-80567996D01*
X82286442Y-80567997D01*
X82286446Y-80567999D01*
X82415341Y-80627632D01*
X82621097Y-80722825D01*
X82970534Y-80840564D01*
X83330652Y-80919832D01*
X83697230Y-80959700D01*
X83697236Y-80959700D01*
X84065964Y-80959700D01*
X84065970Y-80959700D01*
X84432548Y-80919832D01*
X84792666Y-80840564D01*
X85142103Y-80722825D01*
X85476762Y-80567995D01*
X85792719Y-80377890D01*
X86086270Y-80154738D01*
X86353973Y-79901156D01*
X86592690Y-79620117D01*
X86799622Y-79314916D01*
X86972343Y-78989130D01*
X87108827Y-78646579D01*
X87207475Y-78291281D01*
X87267131Y-77927399D01*
X87287094Y-77559202D01*
X116412106Y-77559202D01*
X116432069Y-77927396D01*
X116432070Y-77927413D01*
X116491722Y-78291268D01*
X116491728Y-78291294D01*
X116590368Y-78646565D01*
X116590370Y-78646571D01*
X116726855Y-78989126D01*
X116726861Y-78989138D01*
X116899573Y-79314908D01*
X116899579Y-79314917D01*
X117106509Y-79620116D01*
X117119176Y-79635028D01*
X117345227Y-79901156D01*
X117612930Y-80154738D01*
X117906481Y-80377890D01*
X118222438Y-80567995D01*
X118222440Y-80567996D01*
X118222442Y-80567997D01*
X118222446Y-80567999D01*
X118351341Y-80627632D01*
X118557097Y-80722825D01*
X118906534Y-80840564D01*
X119266652Y-80919832D01*
X119633230Y-80959700D01*
X119633236Y-80959700D01*
X120001964Y-80959700D01*
X120001970Y-80959700D01*
X120368548Y-80919832D01*
X120728666Y-80840564D01*
X121078103Y-80722825D01*
X121412762Y-80567995D01*
X121728719Y-80377890D01*
X122022270Y-80154738D01*
X122289973Y-79901156D01*
X122528690Y-79620117D01*
X122735622Y-79314916D01*
X122908343Y-78989130D01*
X123044827Y-78646579D01*
X123143475Y-78291281D01*
X123203131Y-77927399D01*
X123223094Y-77559200D01*
X123203131Y-77191001D01*
X123148442Y-76857419D01*
X123143477Y-76827131D01*
X123143476Y-76827130D01*
X123143475Y-76827119D01*
X123044827Y-76471821D01*
X122908343Y-76129270D01*
X122832053Y-75985372D01*
X122735626Y-75803491D01*
X122735624Y-75803488D01*
X122735622Y-75803484D01*
X122528690Y-75498283D01*
X122289973Y-75217244D01*
X122022270Y-74963662D01*
X122006430Y-74951621D01*
X121975964Y-74928461D01*
X121728719Y-74740510D01*
X121412762Y-74550405D01*
X121412761Y-74550404D01*
X121412757Y-74550402D01*
X121412753Y-74550400D01*
X121078113Y-74395579D01*
X121078108Y-74395577D01*
X121078103Y-74395575D01*
X120860046Y-74322103D01*
X120728665Y-74277835D01*
X120368546Y-74198567D01*
X120001971Y-74158700D01*
X120001970Y-74158700D01*
X119633230Y-74158700D01*
X119633228Y-74158700D01*
X119266653Y-74198567D01*
X118906534Y-74277835D01*
X118679576Y-74354307D01*
X118557097Y-74395575D01*
X118557094Y-74395576D01*
X118557086Y-74395579D01*
X118222446Y-74550400D01*
X118222442Y-74550402D01*
X117999065Y-74684804D01*
X117906481Y-74740510D01*
X117833580Y-74795928D01*
X117612930Y-74963661D01*
X117612930Y-74963662D01*
X117345226Y-75217244D01*
X117106509Y-75498283D01*
X116899579Y-75803482D01*
X116899573Y-75803491D01*
X116726861Y-76129261D01*
X116726855Y-76129273D01*
X116590370Y-76471828D01*
X116590368Y-76471834D01*
X116491728Y-76827105D01*
X116491722Y-76827131D01*
X116432070Y-77190986D01*
X116432069Y-77191003D01*
X116412106Y-77559197D01*
X116412106Y-77559202D01*
X87287094Y-77559202D01*
X87287094Y-77559200D01*
X87267131Y-77191001D01*
X87212442Y-76857419D01*
X87207477Y-76827131D01*
X87207476Y-76827130D01*
X87207475Y-76827119D01*
X87108827Y-76471821D01*
X87044040Y-76309219D01*
X87037514Y-76239656D01*
X87069632Y-76177606D01*
X87130198Y-76142770D01*
X87199983Y-76146210D01*
X87246915Y-76175642D01*
X87845068Y-76773795D01*
X87848723Y-76777784D01*
X87874741Y-76808790D01*
X87874742Y-76808791D01*
X87874745Y-76808794D01*
X87903587Y-76825445D01*
X87909804Y-76829035D01*
X87914354Y-76831933D01*
X87947516Y-76855153D01*
X87947518Y-76855153D01*
X87947519Y-76855154D01*
X87952368Y-76857415D01*
X87969147Y-76864365D01*
X87974152Y-76866187D01*
X87974153Y-76866187D01*
X87974155Y-76866188D01*
X88014029Y-76873218D01*
X88019292Y-76874386D01*
X88031107Y-76877551D01*
X88058393Y-76884863D01*
X88098710Y-76881335D01*
X88104112Y-76881100D01*
X95822952Y-76881100D01*
X95828355Y-76881335D01*
X95868681Y-76884864D01*
X95907814Y-76874377D01*
X95913036Y-76873219D01*
X95952919Y-76866188D01*
X95952924Y-76866184D01*
X95957973Y-76864347D01*
X95974698Y-76857419D01*
X95979555Y-76855154D01*
X95979558Y-76855154D01*
X96012715Y-76831935D01*
X96017264Y-76829038D01*
X96052329Y-76808794D01*
X96052333Y-76808790D01*
X96063411Y-76795586D01*
X96078355Y-76777776D01*
X96081996Y-76773802D01*
X97464595Y-75391203D01*
X109644035Y-75391203D01*
X109664230Y-75570449D01*
X109664231Y-75570454D01*
X109723811Y-75740723D01*
X109763247Y-75803484D01*
X109819784Y-75893462D01*
X109947338Y-76021016D01*
X110100078Y-76116989D01*
X110216169Y-76157611D01*
X110270345Y-76176568D01*
X110270350Y-76176569D01*
X110360846Y-76186765D01*
X110404640Y-76191699D01*
X110404643Y-76191700D01*
X110404646Y-76191700D01*
X110494557Y-76191700D01*
X110494558Y-76191699D01*
X110561704Y-76184134D01*
X110628849Y-76176569D01*
X110628852Y-76176568D01*
X110628855Y-76176568D01*
X110799122Y-76116989D01*
X110951862Y-76021016D01*
X111079416Y-75893462D01*
X111175389Y-75740722D01*
X111234968Y-75570455D01*
X111255165Y-75391200D01*
X111240299Y-75259263D01*
X111234969Y-75211950D01*
X111234968Y-75211945D01*
X111213331Y-75150110D01*
X111175389Y-75041678D01*
X111079416Y-74888938D01*
X110951862Y-74761384D01*
X110928192Y-74746511D01*
X110799123Y-74665411D01*
X110628854Y-74605831D01*
X110628849Y-74605830D01*
X110494560Y-74590700D01*
X110494554Y-74590700D01*
X110404646Y-74590700D01*
X110404639Y-74590700D01*
X110270350Y-74605830D01*
X110270345Y-74605831D01*
X110100076Y-74665411D01*
X109947337Y-74761384D01*
X109819784Y-74888937D01*
X109723811Y-75041676D01*
X109664231Y-75211945D01*
X109664230Y-75211950D01*
X109644035Y-75391196D01*
X109644035Y-75391203D01*
X97464595Y-75391203D01*
X97992804Y-74862994D01*
X97996766Y-74859363D01*
X98027794Y-74833329D01*
X98048038Y-74798264D01*
X98050935Y-74793715D01*
X98074154Y-74760558D01*
X98074154Y-74760555D01*
X98076419Y-74755698D01*
X98083347Y-74738973D01*
X98085184Y-74733924D01*
X98085188Y-74733919D01*
X98092219Y-74694036D01*
X98093380Y-74688804D01*
X98103864Y-74649681D01*
X98103863Y-74649678D01*
X98105786Y-74642505D01*
X98142151Y-74582845D01*
X98204998Y-74552317D01*
X98274374Y-74560612D01*
X98313241Y-74586919D01*
X98347338Y-74621016D01*
X98381538Y-74642505D01*
X98499358Y-74716537D01*
X98500078Y-74716989D01*
X98584447Y-74746511D01*
X98670345Y-74776568D01*
X98670350Y-74776569D01*
X98849596Y-74796765D01*
X98849600Y-74796765D01*
X98849604Y-74796765D01*
X99028849Y-74776569D01*
X99028852Y-74776568D01*
X99028855Y-74776568D01*
X99199122Y-74716989D01*
X99351862Y-74621016D01*
X99396636Y-74576240D01*
X99416036Y-74560414D01*
X99426578Y-74553461D01*
X99596592Y-74385429D01*
X99723983Y-74262962D01*
X99817724Y-74174190D01*
X99840983Y-74156842D01*
X99842107Y-74156194D01*
X99855273Y-74140502D01*
X99913441Y-74101797D01*
X99983302Y-74100685D01*
X100042674Y-74137518D01*
X100067307Y-74179248D01*
X100123809Y-74340719D01*
X100123811Y-74340722D01*
X100219784Y-74493462D01*
X100347338Y-74621016D01*
X100500078Y-74716989D01*
X100533419Y-74728655D01*
X100540541Y-74731147D01*
X100559727Y-74739749D01*
X100569378Y-74745102D01*
X100815194Y-74823852D01*
X100822418Y-74825879D01*
X100831370Y-74828041D01*
X100835858Y-74828953D01*
X100838726Y-74829537D01*
X101037293Y-74862400D01*
X101037294Y-74862400D01*
X101166079Y-74885336D01*
X101193928Y-74893763D01*
X101285577Y-74933760D01*
X101314722Y-74951620D01*
X101471042Y-75080123D01*
X101472966Y-75081214D01*
X101499459Y-75101385D01*
X101546263Y-75148189D01*
X101549918Y-75152178D01*
X101575941Y-75183190D01*
X101575943Y-75183191D01*
X101575945Y-75183194D01*
X101575947Y-75183195D01*
X101575948Y-75183196D01*
X101610999Y-75203433D01*
X101615562Y-75206339D01*
X101648716Y-75229554D01*
X101648719Y-75229554D01*
X101653576Y-75231820D01*
X101670333Y-75238760D01*
X101675353Y-75240587D01*
X101675355Y-75240588D01*
X101711206Y-75246909D01*
X101715208Y-75247615D01*
X101720480Y-75248783D01*
X101759593Y-75259264D01*
X101799922Y-75255735D01*
X101805324Y-75255500D01*
X105893878Y-75255500D01*
X105899281Y-75255735D01*
X105939607Y-75259264D01*
X105978740Y-75248777D01*
X105983962Y-75247619D01*
X106023845Y-75240588D01*
X106023850Y-75240584D01*
X106028899Y-75238747D01*
X106045624Y-75231819D01*
X106050481Y-75229554D01*
X106050484Y-75229554D01*
X106083641Y-75206335D01*
X106088190Y-75203438D01*
X106123255Y-75183194D01*
X106123259Y-75183190D01*
X106149276Y-75152182D01*
X106152922Y-75148202D01*
X106199785Y-75101339D01*
X106223334Y-75083862D01*
X106223098Y-75083509D01*
X106228159Y-75080121D01*
X106274923Y-75041678D01*
X106384477Y-74951617D01*
X106413611Y-74933764D01*
X106505267Y-74893763D01*
X106533113Y-74885336D01*
X106634466Y-74867286D01*
X106661905Y-74862400D01*
X106860471Y-74829537D01*
X106867827Y-74828041D01*
X106876782Y-74825879D01*
X106884001Y-74823853D01*
X107133805Y-74743826D01*
X107138624Y-74742062D01*
X107138623Y-74742062D01*
X107138627Y-74742061D01*
X107140091Y-74741127D01*
X107165782Y-74728655D01*
X107175436Y-74725276D01*
X107199122Y-74716989D01*
X107351862Y-74621016D01*
X107479416Y-74493462D01*
X107575389Y-74340722D01*
X107634968Y-74170455D01*
X107634981Y-74170341D01*
X107655165Y-73991203D01*
X108044035Y-73991203D01*
X108064230Y-74170449D01*
X108064231Y-74170454D01*
X108123811Y-74340723D01*
X108200551Y-74462853D01*
X108219784Y-74493462D01*
X108347338Y-74621016D01*
X108381538Y-74642505D01*
X108499358Y-74716537D01*
X108500078Y-74716989D01*
X108584447Y-74746511D01*
X108670345Y-74776568D01*
X108670350Y-74776569D01*
X108849596Y-74796765D01*
X108849600Y-74796765D01*
X108849604Y-74796765D01*
X109028849Y-74776569D01*
X109028852Y-74776568D01*
X109028855Y-74776568D01*
X109199122Y-74716989D01*
X109351862Y-74621016D01*
X109479416Y-74493462D01*
X109575389Y-74340722D01*
X109634968Y-74170455D01*
X109634981Y-74170341D01*
X109655165Y-73991203D01*
X109655165Y-73991196D01*
X109634969Y-73811950D01*
X109634968Y-73811945D01*
X109591589Y-73687976D01*
X109575389Y-73641678D01*
X109563185Y-73622256D01*
X109479415Y-73488937D01*
X109351862Y-73361384D01*
X109199123Y-73265411D01*
X109028854Y-73205831D01*
X109028849Y-73205830D01*
X108849604Y-73185635D01*
X108849596Y-73185635D01*
X108670350Y-73205830D01*
X108670345Y-73205831D01*
X108500076Y-73265411D01*
X108347337Y-73361384D01*
X108219784Y-73488937D01*
X108123811Y-73641676D01*
X108064231Y-73811945D01*
X108064230Y-73811950D01*
X108044035Y-73991196D01*
X108044035Y-73991203D01*
X107655165Y-73991203D01*
X107655165Y-73991196D01*
X107634969Y-73811950D01*
X107634968Y-73811945D01*
X107591589Y-73687976D01*
X107575389Y-73641678D01*
X107563185Y-73622256D01*
X107479415Y-73488937D01*
X107351862Y-73361384D01*
X107199123Y-73265411D01*
X107028854Y-73205831D01*
X107028849Y-73205830D01*
X106849604Y-73185635D01*
X106849596Y-73185635D01*
X106670350Y-73205830D01*
X106670345Y-73205831D01*
X106500076Y-73265411D01*
X106347337Y-73361384D01*
X106219784Y-73488937D01*
X106123812Y-73641675D01*
X106109652Y-73682141D01*
X106101053Y-73701321D01*
X106095699Y-73710974D01*
X106063351Y-73811945D01*
X106016957Y-73956760D01*
X106016947Y-73956795D01*
X106014946Y-73963917D01*
X106014922Y-73964018D01*
X106012779Y-73972862D01*
X106011268Y-73980283D01*
X105987512Y-74123828D01*
X105978398Y-74178895D01*
X105955460Y-74307680D01*
X105947030Y-74335533D01*
X105907037Y-74427176D01*
X105889177Y-74456322D01*
X105804572Y-74559243D01*
X105746795Y-74598530D01*
X105708783Y-74604500D01*
X105634008Y-74604500D01*
X105566969Y-74584815D01*
X105521214Y-74532011D01*
X105511270Y-74462853D01*
X105529014Y-74414528D01*
X105566853Y-74354307D01*
X105575389Y-74340722D01*
X105634968Y-74170455D01*
X105634981Y-74170341D01*
X105655165Y-73991203D01*
X105655165Y-73991196D01*
X105634969Y-73811950D01*
X105634968Y-73811945D01*
X105591589Y-73687976D01*
X105575389Y-73641678D01*
X105563185Y-73622256D01*
X105479415Y-73488937D01*
X105351862Y-73361384D01*
X105199123Y-73265411D01*
X105028854Y-73205831D01*
X105028849Y-73205830D01*
X104849604Y-73185635D01*
X104849596Y-73185635D01*
X104670350Y-73205830D01*
X104670345Y-73205831D01*
X104500076Y-73265411D01*
X104347337Y-73361384D01*
X104219784Y-73488937D01*
X104123811Y-73641676D01*
X104064231Y-73811945D01*
X104064230Y-73811950D01*
X104044035Y-73991196D01*
X104044035Y-73991203D01*
X104064230Y-74170449D01*
X104064231Y-74170454D01*
X104123811Y-74340723D01*
X104170186Y-74414528D01*
X104189186Y-74481765D01*
X104168818Y-74548600D01*
X104115550Y-74593814D01*
X104065192Y-74604500D01*
X103633417Y-74604500D01*
X103566378Y-74584815D01*
X103520623Y-74532011D01*
X103510679Y-74462853D01*
X103528423Y-74414528D01*
X103574936Y-74340501D01*
X103634477Y-74170341D01*
X103634478Y-74170338D01*
X103654662Y-73991202D01*
X103654662Y-73991197D01*
X103634478Y-73812061D01*
X103634477Y-73812058D01*
X103574937Y-73641901D01*
X103574935Y-73641897D01*
X103566260Y-73628091D01*
X103350152Y-73844199D01*
X103288829Y-73877684D01*
X103219137Y-73872700D01*
X103163204Y-73830828D01*
X103158662Y-73824339D01*
X103110665Y-73750874D01*
X103110662Y-73750871D01*
X103010999Y-73673300D01*
X102970186Y-73616590D01*
X102966511Y-73546817D01*
X102999480Y-73487766D01*
X103212708Y-73274538D01*
X103212708Y-73274537D01*
X103198908Y-73265867D01*
X103198898Y-73265862D01*
X103028741Y-73206322D01*
X103028738Y-73206321D01*
X102849603Y-73186138D01*
X102849597Y-73186138D01*
X102670461Y-73206321D01*
X102670458Y-73206322D01*
X102500296Y-73265864D01*
X102486491Y-73274538D01*
X102486490Y-73274538D01*
X102703193Y-73491241D01*
X102736678Y-73552564D01*
X102731694Y-73622256D01*
X102689822Y-73678189D01*
X102674531Y-73687976D01*
X102631654Y-73711180D01*
X102631652Y-73711181D01*
X102552539Y-73797122D01*
X102549041Y-73805096D01*
X102504081Y-73858579D01*
X102437344Y-73879265D01*
X102370017Y-73860586D01*
X102347807Y-73842960D01*
X102132938Y-73628090D01*
X102132938Y-73628091D01*
X102124264Y-73641896D01*
X102064722Y-73812058D01*
X102064721Y-73812061D01*
X102044538Y-73991197D01*
X102044538Y-73991202D01*
X102064721Y-74170338D01*
X102064722Y-74170341D01*
X102124263Y-74340501D01*
X102170777Y-74414528D01*
X102189777Y-74481765D01*
X102169409Y-74548600D01*
X102116141Y-74593814D01*
X102065783Y-74604500D01*
X101990415Y-74604500D01*
X101923376Y-74584815D01*
X101894626Y-74559243D01*
X101889872Y-74553460D01*
X101810022Y-74456324D01*
X101792162Y-74427179D01*
X101778371Y-74395579D01*
X101752165Y-74335531D01*
X101743736Y-74307677D01*
X101742951Y-74303272D01*
X101720800Y-74178894D01*
X101712610Y-74129409D01*
X101687937Y-73980326D01*
X101687353Y-73977458D01*
X101686441Y-73972970D01*
X101684279Y-73964018D01*
X101682252Y-73956794D01*
X101602225Y-73706993D01*
X101600461Y-73702172D01*
X101599525Y-73700703D01*
X101587055Y-73675018D01*
X101580255Y-73655586D01*
X101575389Y-73641678D01*
X101479416Y-73488938D01*
X101451175Y-73460698D01*
X101417691Y-73399375D01*
X101422675Y-73329683D01*
X101464547Y-73273750D01*
X101467731Y-73271444D01*
X101468834Y-73270671D01*
X101497600Y-73250528D01*
X101502138Y-73247638D01*
X101537203Y-73227394D01*
X101563229Y-73196376D01*
X101566870Y-73192402D01*
X102046810Y-72712463D01*
X102050772Y-72708832D01*
X102081794Y-72682803D01*
X102102044Y-72647727D01*
X102104928Y-72643200D01*
X102128154Y-72610032D01*
X102128154Y-72610029D01*
X102130419Y-72605172D01*
X102137347Y-72588447D01*
X102139187Y-72583394D01*
X102139188Y-72583393D01*
X102146221Y-72543498D01*
X102147377Y-72538285D01*
X102157863Y-72499155D01*
X102154335Y-72458837D01*
X102154100Y-72453434D01*
X102154100Y-72384508D01*
X102173785Y-72317469D01*
X102190419Y-72296827D01*
X102349047Y-72138199D01*
X102410370Y-72104714D01*
X102480062Y-72109698D01*
X102535995Y-72151570D01*
X102540537Y-72158059D01*
X102588534Y-72231525D01*
X102588535Y-72231526D01*
X102588536Y-72231527D01*
X102639532Y-72271218D01*
X102688200Y-72309098D01*
X102729013Y-72365809D01*
X102732688Y-72435582D01*
X102699719Y-72494633D01*
X102486491Y-72707860D01*
X102500297Y-72716535D01*
X102500301Y-72716537D01*
X102670458Y-72776077D01*
X102670461Y-72776078D01*
X102849597Y-72796262D01*
X102849603Y-72796262D01*
X103028738Y-72776078D01*
X103198907Y-72716533D01*
X103212707Y-72707861D01*
X103212707Y-72707860D01*
X102996006Y-72491158D01*
X102962521Y-72429835D01*
X102967505Y-72360143D01*
X103009377Y-72304210D01*
X103024662Y-72294427D01*
X103067547Y-72271219D01*
X103146660Y-72185279D01*
X103150155Y-72177310D01*
X103195110Y-72123824D01*
X103261846Y-72103134D01*
X103329174Y-72121808D01*
X103351392Y-72139439D01*
X103566260Y-72354307D01*
X103566261Y-72354307D01*
X103574933Y-72340507D01*
X103634478Y-72170338D01*
X103654662Y-71991202D01*
X103654662Y-71991197D01*
X103634478Y-71812061D01*
X103634477Y-71812058D01*
X103574936Y-71641898D01*
X103537094Y-71581672D01*
X103518094Y-71514435D01*
X103538462Y-71447600D01*
X103591730Y-71402386D01*
X103642088Y-71391700D01*
X104056521Y-71391700D01*
X104123560Y-71411385D01*
X104169315Y-71464189D01*
X104179259Y-71533347D01*
X104161515Y-71581672D01*
X104123811Y-71641676D01*
X104064231Y-71811945D01*
X104064230Y-71811950D01*
X104044035Y-71991196D01*
X104044035Y-71991203D01*
X104064230Y-72170449D01*
X104064231Y-72170454D01*
X104123811Y-72340723D01*
X104210459Y-72478621D01*
X104219784Y-72493462D01*
X104347338Y-72621016D01*
X104403058Y-72656027D01*
X104499358Y-72716537D01*
X104500078Y-72716989D01*
X104648763Y-72769016D01*
X104670345Y-72776568D01*
X104670350Y-72776569D01*
X104849596Y-72796765D01*
X104849600Y-72796765D01*
X104849604Y-72796765D01*
X105028849Y-72776569D01*
X105028852Y-72776568D01*
X105028855Y-72776568D01*
X105199122Y-72716989D01*
X105351862Y-72621016D01*
X105479416Y-72493462D01*
X105575389Y-72340722D01*
X105634968Y-72170455D01*
X105634981Y-72170341D01*
X105655165Y-71991203D01*
X105655165Y-71991196D01*
X105634969Y-71811950D01*
X105634968Y-71811945D01*
X105617908Y-71763191D01*
X105575389Y-71641678D01*
X105564056Y-71623642D01*
X105537685Y-71581672D01*
X105518685Y-71514435D01*
X105539053Y-71447600D01*
X105592321Y-71402386D01*
X105642679Y-71391700D01*
X105720129Y-71391700D01*
X105787168Y-71411385D01*
X105815916Y-71436955D01*
X105879608Y-71514435D01*
X105889177Y-71526075D01*
X105907037Y-71555221D01*
X105947030Y-71646863D01*
X105955460Y-71674717D01*
X105978398Y-71803503D01*
X106011261Y-72002071D01*
X106011262Y-72002074D01*
X106012757Y-72009427D01*
X106014919Y-72018379D01*
X106016946Y-72025603D01*
X106075598Y-72208681D01*
X106096975Y-72275409D01*
X106098738Y-72280228D01*
X106099678Y-72281703D01*
X106112142Y-72307377D01*
X106123810Y-72340720D01*
X106123812Y-72340724D01*
X106208641Y-72475728D01*
X106219784Y-72493462D01*
X106347338Y-72621016D01*
X106403058Y-72656027D01*
X106499358Y-72716537D01*
X106500078Y-72716989D01*
X106648763Y-72769016D01*
X106670345Y-72776568D01*
X106670350Y-72776569D01*
X106849596Y-72796765D01*
X106849600Y-72796765D01*
X106849604Y-72796765D01*
X107028849Y-72776569D01*
X107028852Y-72776568D01*
X107028855Y-72776568D01*
X107199122Y-72716989D01*
X107351862Y-72621016D01*
X107479416Y-72493462D01*
X107575389Y-72340722D01*
X107634968Y-72170455D01*
X107634981Y-72170341D01*
X107655165Y-71991203D01*
X108044035Y-71991203D01*
X108064230Y-72170449D01*
X108064231Y-72170454D01*
X108123811Y-72340723D01*
X108210459Y-72478621D01*
X108219784Y-72493462D01*
X108347338Y-72621016D01*
X108403058Y-72656027D01*
X108499358Y-72716537D01*
X108500078Y-72716989D01*
X108648763Y-72769016D01*
X108670345Y-72776568D01*
X108670350Y-72776569D01*
X108849596Y-72796765D01*
X108849600Y-72796765D01*
X108849604Y-72796765D01*
X109028849Y-72776569D01*
X109028852Y-72776568D01*
X109028855Y-72776568D01*
X109199122Y-72716989D01*
X109351862Y-72621016D01*
X109479416Y-72493462D01*
X109575389Y-72340722D01*
X109634968Y-72170455D01*
X109634981Y-72170341D01*
X109655165Y-71991203D01*
X109655165Y-71991196D01*
X109634969Y-71811950D01*
X109634968Y-71811945D01*
X109617908Y-71763191D01*
X109575389Y-71641678D01*
X109564054Y-71623639D01*
X109515090Y-71545713D01*
X109479416Y-71488938D01*
X109351862Y-71361384D01*
X109213648Y-71274538D01*
X109199123Y-71265411D01*
X109028854Y-71205831D01*
X109028849Y-71205830D01*
X108849604Y-71185635D01*
X108849596Y-71185635D01*
X108670350Y-71205830D01*
X108670345Y-71205831D01*
X108500076Y-71265411D01*
X108347337Y-71361384D01*
X108219784Y-71488937D01*
X108123811Y-71641676D01*
X108064231Y-71811945D01*
X108064230Y-71811950D01*
X108044035Y-71991196D01*
X108044035Y-71991203D01*
X107655165Y-71991203D01*
X107655165Y-71991196D01*
X107634969Y-71811950D01*
X107634968Y-71811945D01*
X107617908Y-71763191D01*
X107575389Y-71641678D01*
X107564054Y-71623639D01*
X107515090Y-71545713D01*
X107479416Y-71488938D01*
X107351862Y-71361384D01*
X107199122Y-71265411D01*
X107199120Y-71265410D01*
X107158653Y-71251249D01*
X107139475Y-71242651D01*
X107129824Y-71237299D01*
X107033129Y-71206321D01*
X106883993Y-71158543D01*
X106881384Y-71157811D01*
X106876755Y-71156512D01*
X106867801Y-71154351D01*
X106860466Y-71152860D01*
X106661904Y-71119998D01*
X106533117Y-71097060D01*
X106505263Y-71088630D01*
X106413621Y-71048637D01*
X106384475Y-71030777D01*
X106228157Y-70902276D01*
X106228156Y-70902275D01*
X106226228Y-70901181D01*
X106199738Y-70881012D01*
X106166719Y-70847993D01*
X106163074Y-70844014D01*
X106137056Y-70813007D01*
X106137055Y-70813006D01*
X106125658Y-70806426D01*
X106101992Y-70792761D01*
X106097431Y-70789855D01*
X106084287Y-70780652D01*
X106064284Y-70766646D01*
X106064281Y-70766645D01*
X106059461Y-70764397D01*
X106042655Y-70757435D01*
X106037643Y-70755611D01*
X105997790Y-70748583D01*
X105992510Y-70747412D01*
X105953408Y-70736935D01*
X105918492Y-70739990D01*
X105913081Y-70740464D01*
X105907678Y-70740700D01*
X102483374Y-70740700D01*
X102477970Y-70740464D01*
X102472559Y-70739990D01*
X102437644Y-70736935D01*
X102437643Y-70736935D01*
X102398543Y-70747412D01*
X102393263Y-70748583D01*
X102353411Y-70755610D01*
X102348413Y-70757429D01*
X102331569Y-70764406D01*
X102326765Y-70766646D01*
X102293618Y-70789856D01*
X102289058Y-70792762D01*
X102254000Y-70813004D01*
X102253992Y-70813010D01*
X102227975Y-70844015D01*
X102224321Y-70848004D01*
X101619082Y-71453242D01*
X101557759Y-71486727D01*
X101488067Y-71481743D01*
X101443720Y-71453242D01*
X101351862Y-71361384D01*
X101199123Y-71265411D01*
X101028854Y-71205831D01*
X101028849Y-71205830D01*
X100849604Y-71185635D01*
X100849596Y-71185635D01*
X100670350Y-71205830D01*
X100670345Y-71205831D01*
X100500076Y-71265411D01*
X100347337Y-71361384D01*
X100219784Y-71488937D01*
X100123812Y-71641675D01*
X100109652Y-71682141D01*
X100101053Y-71701321D01*
X100095699Y-71710974D01*
X100063351Y-71811945D01*
X100023237Y-71937160D01*
X100016957Y-71956761D01*
X100014946Y-71963917D01*
X100013472Y-71970001D01*
X100012779Y-71972862D01*
X100011268Y-71980283D01*
X99987512Y-72123828D01*
X99978398Y-72178895D01*
X99955460Y-72307680D01*
X99947030Y-72335533D01*
X99907037Y-72427176D01*
X99889177Y-72456321D01*
X99757287Y-72616764D01*
X99756259Y-72615918D01*
X99706986Y-72656027D01*
X99658971Y-72665700D01*
X99595553Y-72665700D01*
X99528514Y-72646015D01*
X99482759Y-72593211D01*
X99472815Y-72524053D01*
X99490559Y-72475728D01*
X99515784Y-72435582D01*
X99575389Y-72340722D01*
X99634968Y-72170455D01*
X99634981Y-72170341D01*
X99655165Y-71991203D01*
X99655165Y-71991196D01*
X99634969Y-71811950D01*
X99634968Y-71811945D01*
X99617908Y-71763191D01*
X99575389Y-71641678D01*
X99564054Y-71623639D01*
X99515090Y-71545713D01*
X99479416Y-71488938D01*
X99351862Y-71361384D01*
X99213648Y-71274538D01*
X99199123Y-71265411D01*
X99028854Y-71205831D01*
X99028849Y-71205830D01*
X98849604Y-71185635D01*
X98849596Y-71185635D01*
X98670350Y-71205830D01*
X98670345Y-71205831D01*
X98500076Y-71265411D01*
X98347337Y-71361384D01*
X98219784Y-71488937D01*
X98123811Y-71641676D01*
X98064231Y-71811945D01*
X98064230Y-71811950D01*
X98044035Y-71991196D01*
X98044035Y-71991203D01*
X98064230Y-72170449D01*
X98064231Y-72170454D01*
X98123811Y-72340723D01*
X98219784Y-72493462D01*
X98310397Y-72584075D01*
X98343882Y-72645398D01*
X98338898Y-72715090D01*
X98317701Y-72751467D01*
X98302974Y-72769016D01*
X98299320Y-72773003D01*
X97619082Y-73453242D01*
X97557759Y-73486727D01*
X97488068Y-73481743D01*
X97443720Y-73453242D01*
X97351862Y-73361384D01*
X97199123Y-73265411D01*
X97028854Y-73205831D01*
X97028849Y-73205830D01*
X96849604Y-73185635D01*
X96849596Y-73185635D01*
X96670350Y-73205830D01*
X96670345Y-73205831D01*
X96500076Y-73265411D01*
X96347337Y-73361384D01*
X96219784Y-73488937D01*
X96123811Y-73641676D01*
X96064231Y-73811945D01*
X96064230Y-73811950D01*
X96044035Y-73991196D01*
X96044035Y-73991203D01*
X96064230Y-74170449D01*
X96064231Y-74170454D01*
X96123811Y-74340723D01*
X96200551Y-74462853D01*
X96219784Y-74493462D01*
X96347338Y-74621016D01*
X96381538Y-74642505D01*
X96499358Y-74716537D01*
X96500078Y-74716989D01*
X96584447Y-74746511D01*
X96670345Y-74776568D01*
X96670350Y-74776569D01*
X96766600Y-74787413D01*
X96849600Y-74796765D01*
X96849601Y-74796764D01*
X96853269Y-74797178D01*
X96917683Y-74824244D01*
X96957238Y-74881839D01*
X96959376Y-74951676D01*
X96927067Y-75008079D01*
X95741367Y-76193781D01*
X95680044Y-76227266D01*
X95653686Y-76230100D01*
X93842140Y-76230100D01*
X93775101Y-76210415D01*
X93729346Y-76157611D01*
X93719402Y-76088453D01*
X93748427Y-76024897D01*
X93754459Y-76018419D01*
X93754458Y-76018419D01*
X93879416Y-75893462D01*
X93975389Y-75740722D01*
X94034968Y-75570455D01*
X94055165Y-75391200D01*
X94040299Y-75259263D01*
X94034969Y-75211950D01*
X94034968Y-75211945D01*
X94013331Y-75150110D01*
X93975389Y-75041678D01*
X93879416Y-74888938D01*
X93751862Y-74761384D01*
X93728192Y-74746511D01*
X93599123Y-74665411D01*
X93428854Y-74605831D01*
X93428849Y-74605830D01*
X93294560Y-74590700D01*
X93294554Y-74590700D01*
X93204646Y-74590700D01*
X93204639Y-74590700D01*
X93070350Y-74605830D01*
X93070345Y-74605831D01*
X92900076Y-74665411D01*
X92747337Y-74761384D01*
X92619784Y-74888937D01*
X92523811Y-75041676D01*
X92464231Y-75211945D01*
X92464230Y-75211950D01*
X92444035Y-75391196D01*
X92444035Y-75391203D01*
X92464230Y-75570449D01*
X92464231Y-75570454D01*
X92523811Y-75740723D01*
X92619784Y-75893462D01*
X92744741Y-76018419D01*
X92778226Y-76079742D01*
X92773242Y-76149434D01*
X92731370Y-76205367D01*
X92665906Y-76229784D01*
X92657060Y-76230100D01*
X88273389Y-76230100D01*
X88206350Y-76210415D01*
X88185708Y-76193781D01*
X85983128Y-73991202D01*
X94044538Y-73991202D01*
X94064721Y-74170338D01*
X94064722Y-74170341D01*
X94124262Y-74340498D01*
X94124267Y-74340508D01*
X94132938Y-74354308D01*
X94349047Y-74138199D01*
X94410370Y-74104714D01*
X94480061Y-74109698D01*
X94535995Y-74151569D01*
X94540537Y-74158059D01*
X94588534Y-74231525D01*
X94588535Y-74231526D01*
X94588536Y-74231527D01*
X94648033Y-74277835D01*
X94688200Y-74309098D01*
X94729013Y-74365809D01*
X94732688Y-74435582D01*
X94699719Y-74494633D01*
X94486491Y-74707860D01*
X94500297Y-74716535D01*
X94500301Y-74716537D01*
X94670458Y-74776077D01*
X94670461Y-74776078D01*
X94849597Y-74796262D01*
X94849603Y-74796262D01*
X95028738Y-74776078D01*
X95198907Y-74716533D01*
X95212707Y-74707861D01*
X95212707Y-74707860D01*
X94996006Y-74491158D01*
X94962521Y-74429835D01*
X94967505Y-74360143D01*
X95009377Y-74304210D01*
X95024662Y-74294427D01*
X95067547Y-74271219D01*
X95146660Y-74185279D01*
X95150154Y-74177311D01*
X95195104Y-74123828D01*
X95261839Y-74103134D01*
X95329168Y-74121805D01*
X95351391Y-74139439D01*
X95566260Y-74354307D01*
X95566261Y-74354307D01*
X95574933Y-74340507D01*
X95634478Y-74170338D01*
X95654662Y-73991202D01*
X95654662Y-73991197D01*
X95634478Y-73812061D01*
X95634477Y-73812058D01*
X95574937Y-73641901D01*
X95574935Y-73641897D01*
X95566260Y-73628091D01*
X95350152Y-73844200D01*
X95288829Y-73877685D01*
X95219137Y-73872701D01*
X95163204Y-73830829D01*
X95158670Y-73824352D01*
X95110664Y-73750873D01*
X95110662Y-73750871D01*
X95010999Y-73673300D01*
X94970186Y-73616590D01*
X94966511Y-73546817D01*
X94999480Y-73487766D01*
X95212708Y-73274538D01*
X95212708Y-73274537D01*
X95198908Y-73265867D01*
X95198898Y-73265862D01*
X95028741Y-73206322D01*
X95028738Y-73206321D01*
X94849603Y-73186138D01*
X94849597Y-73186138D01*
X94670461Y-73206321D01*
X94670458Y-73206322D01*
X94500296Y-73265864D01*
X94486491Y-73274538D01*
X94486490Y-73274538D01*
X94703194Y-73491241D01*
X94736679Y-73552564D01*
X94731695Y-73622255D01*
X94689824Y-73678189D01*
X94674531Y-73687976D01*
X94631656Y-73711179D01*
X94631652Y-73711181D01*
X94552539Y-73797122D01*
X94549043Y-73805092D01*
X94504085Y-73858576D01*
X94437348Y-73879264D01*
X94370021Y-73860587D01*
X94347808Y-73842959D01*
X94132939Y-73628090D01*
X94132938Y-73628091D01*
X94124264Y-73641896D01*
X94064722Y-73812058D01*
X94064721Y-73812061D01*
X94044538Y-73991197D01*
X94044538Y-73991202D01*
X85983128Y-73991202D01*
X84205075Y-72213149D01*
X84187101Y-72190376D01*
X84184654Y-72186395D01*
X84184650Y-72186386D01*
X84149025Y-72139439D01*
X84124263Y-72106806D01*
X84103669Y-72065401D01*
X84098840Y-72048220D01*
X84094217Y-72015545D01*
X84094046Y-71991202D01*
X94044538Y-71991202D01*
X94064721Y-72170338D01*
X94064722Y-72170341D01*
X94124262Y-72340498D01*
X94124267Y-72340508D01*
X94132938Y-72354308D01*
X94349047Y-72138200D01*
X94410370Y-72104715D01*
X94480062Y-72109699D01*
X94535995Y-72151571D01*
X94540533Y-72158054D01*
X94553118Y-72177316D01*
X94588535Y-72231526D01*
X94688200Y-72309098D01*
X94729013Y-72365809D01*
X94732688Y-72435582D01*
X94699719Y-72494633D01*
X94486491Y-72707860D01*
X94500297Y-72716535D01*
X94500301Y-72716537D01*
X94670458Y-72776077D01*
X94670461Y-72776078D01*
X94849597Y-72796262D01*
X94849603Y-72796262D01*
X95028738Y-72776078D01*
X95198907Y-72716533D01*
X95212707Y-72707861D01*
X95212707Y-72707860D01*
X94996006Y-72491158D01*
X94962521Y-72429835D01*
X94967505Y-72360143D01*
X95009377Y-72304210D01*
X95024662Y-72294427D01*
X95067547Y-72271219D01*
X95146660Y-72185279D01*
X95150155Y-72177310D01*
X95195108Y-72123825D01*
X95261844Y-72103133D01*
X95329172Y-72121806D01*
X95351392Y-72139438D01*
X95566260Y-72354307D01*
X95566261Y-72354307D01*
X95574933Y-72340507D01*
X95634478Y-72170338D01*
X95654662Y-71991202D01*
X96044538Y-71991202D01*
X96064721Y-72170338D01*
X96064722Y-72170341D01*
X96124262Y-72340498D01*
X96124267Y-72340508D01*
X96132938Y-72354308D01*
X96349047Y-72138199D01*
X96410370Y-72104714D01*
X96480061Y-72109698D01*
X96535995Y-72151569D01*
X96540537Y-72158059D01*
X96588534Y-72231525D01*
X96588535Y-72231526D01*
X96588536Y-72231527D01*
X96639532Y-72271218D01*
X96688200Y-72309098D01*
X96729013Y-72365809D01*
X96732688Y-72435582D01*
X96699719Y-72494633D01*
X96486491Y-72707860D01*
X96500297Y-72716535D01*
X96500301Y-72716537D01*
X96670458Y-72776077D01*
X96670461Y-72776078D01*
X96849597Y-72796262D01*
X96849603Y-72796262D01*
X97028738Y-72776078D01*
X97198907Y-72716533D01*
X97212707Y-72707861D01*
X97212707Y-72707860D01*
X96996006Y-72491158D01*
X96962521Y-72429835D01*
X96967505Y-72360143D01*
X97009377Y-72304210D01*
X97024662Y-72294427D01*
X97067547Y-72271219D01*
X97146660Y-72185279D01*
X97150154Y-72177311D01*
X97195104Y-72123828D01*
X97261839Y-72103134D01*
X97329168Y-72121805D01*
X97351391Y-72139439D01*
X97566260Y-72354307D01*
X97566261Y-72354307D01*
X97574933Y-72340507D01*
X97634478Y-72170338D01*
X97654662Y-71991202D01*
X97654662Y-71991197D01*
X97634478Y-71812061D01*
X97634477Y-71812058D01*
X97574937Y-71641901D01*
X97574935Y-71641897D01*
X97566260Y-71628091D01*
X97350152Y-71844200D01*
X97288829Y-71877685D01*
X97219137Y-71872701D01*
X97163204Y-71830829D01*
X97158670Y-71824352D01*
X97118712Y-71763191D01*
X97110665Y-71750874D01*
X97110662Y-71750871D01*
X97010999Y-71673300D01*
X96970186Y-71616590D01*
X96966511Y-71546817D01*
X96999480Y-71487766D01*
X97212708Y-71274538D01*
X97212708Y-71274537D01*
X97198908Y-71265867D01*
X97198898Y-71265862D01*
X97028741Y-71206322D01*
X97028738Y-71206321D01*
X96849603Y-71186138D01*
X96849597Y-71186138D01*
X96670461Y-71206321D01*
X96670458Y-71206322D01*
X96500296Y-71265864D01*
X96486491Y-71274538D01*
X96486490Y-71274538D01*
X96703193Y-71491241D01*
X96736678Y-71552564D01*
X96731694Y-71622256D01*
X96689822Y-71678189D01*
X96674531Y-71687976D01*
X96631654Y-71711180D01*
X96631652Y-71711181D01*
X96552539Y-71797122D01*
X96549043Y-71805092D01*
X96504085Y-71858576D01*
X96437348Y-71879264D01*
X96370021Y-71860587D01*
X96347808Y-71842959D01*
X96132939Y-71628090D01*
X96132938Y-71628091D01*
X96124264Y-71641896D01*
X96064722Y-71812058D01*
X96064721Y-71812061D01*
X96044538Y-71991197D01*
X96044538Y-71991202D01*
X95654662Y-71991202D01*
X95654662Y-71991197D01*
X95634478Y-71812061D01*
X95634477Y-71812058D01*
X95574937Y-71641901D01*
X95574935Y-71641897D01*
X95566260Y-71628091D01*
X95350152Y-71844199D01*
X95288829Y-71877684D01*
X95219137Y-71872700D01*
X95163204Y-71830828D01*
X95158662Y-71824339D01*
X95110665Y-71750874D01*
X95110662Y-71750871D01*
X95010999Y-71673300D01*
X94970186Y-71616590D01*
X94966511Y-71546817D01*
X94999480Y-71487766D01*
X95212708Y-71274538D01*
X95212708Y-71274537D01*
X95198908Y-71265867D01*
X95198898Y-71265862D01*
X95028741Y-71206322D01*
X95028738Y-71206321D01*
X94849603Y-71186138D01*
X94849597Y-71186138D01*
X94670461Y-71206321D01*
X94670458Y-71206322D01*
X94500296Y-71265864D01*
X94486491Y-71274538D01*
X94486490Y-71274538D01*
X94703194Y-71491241D01*
X94736679Y-71552564D01*
X94731695Y-71622255D01*
X94689824Y-71678189D01*
X94674531Y-71687976D01*
X94631656Y-71711179D01*
X94631652Y-71711181D01*
X94552539Y-71797122D01*
X94549041Y-71805096D01*
X94504081Y-71858579D01*
X94437344Y-71879265D01*
X94370017Y-71860586D01*
X94347807Y-71842960D01*
X94132938Y-71628090D01*
X94132938Y-71628091D01*
X94124264Y-71641896D01*
X94064722Y-71812058D01*
X94064721Y-71812061D01*
X94044538Y-71991197D01*
X94044538Y-71991202D01*
X84094046Y-71991202D01*
X84093657Y-71935871D01*
X84087554Y-71789139D01*
X84087554Y-71789134D01*
X84086395Y-71777435D01*
X84086394Y-71777433D01*
X84084154Y-71763189D01*
X84084155Y-71763191D01*
X84081666Y-71751693D01*
X84081666Y-71751694D01*
X84053559Y-71650281D01*
X84051836Y-71641808D01*
X84049445Y-71623642D01*
X84049443Y-71623635D01*
X84041019Y-71603301D01*
X84038550Y-71596130D01*
X84034688Y-71582190D01*
X84032866Y-71576304D01*
X84031412Y-71572064D01*
X84031144Y-71571288D01*
X84026583Y-71563992D01*
X84017166Y-71545713D01*
X83988937Y-71477561D01*
X83988936Y-71477560D01*
X83988936Y-71477559D01*
X83892682Y-71352118D01*
X83767241Y-71255864D01*
X83756099Y-71251249D01*
X83621162Y-71195356D01*
X83621160Y-71195355D01*
X83464401Y-71174718D01*
X83464399Y-71174718D01*
X83307639Y-71195355D01*
X83307637Y-71195356D01*
X83161560Y-71255863D01*
X83036118Y-71352118D01*
X82939863Y-71477560D01*
X82879356Y-71623637D01*
X82879355Y-71623639D01*
X82858718Y-71780398D01*
X82858718Y-71780401D01*
X82879355Y-71937160D01*
X82879356Y-71937162D01*
X82915989Y-72025603D01*
X82939864Y-72083241D01*
X83036118Y-72208682D01*
X83161559Y-72304936D01*
X83210896Y-72325371D01*
X83232326Y-72336826D01*
X83243484Y-72344281D01*
X83340620Y-72384508D01*
X83376874Y-72399522D01*
X83462898Y-72439167D01*
X83469509Y-72442713D01*
X83523970Y-72476313D01*
X83531089Y-72481433D01*
X83596485Y-72535868D01*
X83599971Y-72539000D01*
X83625831Y-72564072D01*
X83699013Y-72635029D01*
X83699018Y-72635032D01*
X83699021Y-72635035D01*
X83709096Y-72641599D01*
X83729087Y-72657813D01*
X85257736Y-74186462D01*
X85291221Y-74247785D01*
X85286237Y-74317477D01*
X85244365Y-74373410D01*
X85178901Y-74397827D01*
X85130462Y-74391652D01*
X84792668Y-74277836D01*
X84432546Y-74198567D01*
X84065971Y-74158700D01*
X84065970Y-74158700D01*
X83697230Y-74158700D01*
X83697228Y-74158700D01*
X83330653Y-74198567D01*
X82970534Y-74277835D01*
X82743576Y-74354307D01*
X82621097Y-74395575D01*
X82621094Y-74395576D01*
X82621086Y-74395579D01*
X82286446Y-74550400D01*
X82286442Y-74550402D01*
X82063065Y-74684804D01*
X81970481Y-74740510D01*
X81897580Y-74795928D01*
X81676930Y-74963661D01*
X81676930Y-74963662D01*
X81409226Y-75217244D01*
X81170509Y-75498283D01*
X80963579Y-75803482D01*
X80963573Y-75803491D01*
X80790861Y-76129261D01*
X80790855Y-76129273D01*
X80654370Y-76471828D01*
X80654368Y-76471834D01*
X80555728Y-76827105D01*
X80555722Y-76827131D01*
X80496070Y-77190986D01*
X80496069Y-77191003D01*
X80476106Y-77559197D01*
X80476106Y-77559202D01*
X79363470Y-77559202D01*
X79395231Y-67411601D01*
X104919818Y-67411601D01*
X104940455Y-67568360D01*
X104940456Y-67568362D01*
X105000964Y-67714441D01*
X105097218Y-67839882D01*
X105222659Y-67936136D01*
X105368738Y-67996644D01*
X105447118Y-68006962D01*
X105525499Y-68017282D01*
X105525500Y-68017282D01*
X105525501Y-68017282D01*
X105577754Y-68010402D01*
X105682262Y-67996644D01*
X105828341Y-67936136D01*
X105953782Y-67839882D01*
X106050036Y-67714441D01*
X106110544Y-67568362D01*
X106131182Y-67411600D01*
X106110544Y-67254838D01*
X106083298Y-67189062D01*
X106080606Y-67181056D01*
X106074430Y-67157498D01*
X106074430Y-67157496D01*
X106002648Y-67009917D01*
X106000383Y-67005530D01*
X106000382Y-67005528D01*
X105997720Y-67000664D01*
X105995203Y-66996321D01*
X105929246Y-66888647D01*
X105895100Y-66827380D01*
X105884797Y-66803152D01*
X105870445Y-66756035D01*
X105865415Y-66729199D01*
X105856236Y-66607030D01*
X105856234Y-66607024D01*
X105854934Y-66601988D01*
X105851000Y-66570997D01*
X105851000Y-64535887D01*
X105870685Y-64468848D01*
X105887314Y-64448211D01*
X112214106Y-58121419D01*
X112275430Y-58087934D01*
X112301788Y-58085100D01*
X113094937Y-58085100D01*
X113161976Y-58104785D01*
X113207731Y-58157589D01*
X113217675Y-58226747D01*
X113193313Y-58284586D01*
X113165864Y-58320357D01*
X113105356Y-58466437D01*
X113105355Y-58466439D01*
X113084718Y-58623198D01*
X113084718Y-58623201D01*
X113105355Y-58779960D01*
X113105356Y-58779962D01*
X113165864Y-58926041D01*
X113212819Y-58987234D01*
X113262119Y-59051483D01*
X113281137Y-59066076D01*
X113387559Y-59147736D01*
X113387561Y-59147737D01*
X113453324Y-59174977D01*
X113460895Y-59178736D01*
X113470894Y-59184581D01*
X113481928Y-59191031D01*
X113557356Y-59217094D01*
X113637005Y-59244616D01*
X113639319Y-59245354D01*
X113641631Y-59246092D01*
X113646047Y-59247388D01*
X113646946Y-59247652D01*
X113651873Y-59248966D01*
X113774690Y-59278474D01*
X113842143Y-59297647D01*
X113866564Y-59307494D01*
X113910041Y-59330669D01*
X113932570Y-59346084D01*
X114025456Y-59425986D01*
X114029941Y-59428631D01*
X114054632Y-59447759D01*
X114921468Y-60314595D01*
X114925123Y-60318584D01*
X114951141Y-60349590D01*
X114951142Y-60349591D01*
X114951145Y-60349594D01*
X114986218Y-60369843D01*
X114990748Y-60372729D01*
X115012186Y-60387740D01*
X115055811Y-60442315D01*
X115063005Y-60511813D01*
X115031483Y-60574168D01*
X115003043Y-60596713D01*
X115001279Y-60597731D01*
X114977913Y-60607408D01*
X114973113Y-60609646D01*
X114939963Y-60632858D01*
X114935402Y-60635764D01*
X114900348Y-60656004D01*
X114900345Y-60656006D01*
X114900343Y-60656007D01*
X114900342Y-60656009D01*
X114874323Y-60687015D01*
X114870669Y-60691003D01*
X111592603Y-63969070D01*
X111588614Y-63972725D01*
X111557605Y-63998745D01*
X111537362Y-64033806D01*
X111534456Y-64038366D01*
X111511246Y-64071513D01*
X111509006Y-64076317D01*
X111502029Y-64093161D01*
X111500210Y-64098159D01*
X111493183Y-64138011D01*
X111492012Y-64143291D01*
X111481535Y-64182391D01*
X111485064Y-64222713D01*
X111485300Y-64228120D01*
X111485300Y-64742476D01*
X111480761Y-64775718D01*
X111480064Y-64778220D01*
X111480062Y-64778230D01*
X111470883Y-64900394D01*
X111465851Y-64927235D01*
X111451498Y-64974354D01*
X111441193Y-64998587D01*
X111415627Y-65044458D01*
X111407052Y-65059846D01*
X111407052Y-65059847D01*
X111341127Y-65167470D01*
X111338666Y-65171710D01*
X111335999Y-65176570D01*
X111333677Y-65181059D01*
X111260562Y-65331384D01*
X111259073Y-65334683D01*
X111259073Y-65334684D01*
X111256486Y-65346638D01*
X111249854Y-65367859D01*
X111225755Y-65426040D01*
X111205118Y-65582798D01*
X111205118Y-65582801D01*
X111225755Y-65739560D01*
X111225756Y-65739562D01*
X111286264Y-65885641D01*
X111382518Y-66011082D01*
X111507959Y-66107336D01*
X111654038Y-66167844D01*
X111732419Y-66178163D01*
X111810799Y-66188482D01*
X111810800Y-66188482D01*
X111810801Y-66188482D01*
X111863053Y-66181602D01*
X111967562Y-66167844D01*
X112113641Y-66107336D01*
X112239082Y-66011082D01*
X112335336Y-65885641D01*
X112395844Y-65739562D01*
X112416482Y-65582800D01*
X112395844Y-65426038D01*
X112368598Y-65360262D01*
X112365906Y-65352256D01*
X112359730Y-65328698D01*
X112359730Y-65328696D01*
X112287948Y-65181117D01*
X112285683Y-65176730D01*
X112285682Y-65176728D01*
X112283020Y-65171864D01*
X112280503Y-65167521D01*
X112214546Y-65059847D01*
X112180400Y-64998580D01*
X112170097Y-64974352D01*
X112155745Y-64927235D01*
X112150715Y-64900399D01*
X112141536Y-64778230D01*
X112141535Y-64778225D01*
X112140236Y-64773193D01*
X112136299Y-64742204D01*
X112136300Y-64397387D01*
X112155985Y-64330348D01*
X112172619Y-64309707D01*
X115211308Y-61271019D01*
X115272631Y-61237534D01*
X115298989Y-61234700D01*
X119103676Y-61234700D01*
X119109079Y-61234935D01*
X119149405Y-61238464D01*
X119188538Y-61227977D01*
X119193760Y-61226819D01*
X119233643Y-61219788D01*
X119233648Y-61219784D01*
X119238697Y-61217947D01*
X119255422Y-61211019D01*
X119260279Y-61208754D01*
X119260282Y-61208754D01*
X119293439Y-61185535D01*
X119297988Y-61182638D01*
X119333053Y-61162394D01*
X119359079Y-61131376D01*
X119362720Y-61127402D01*
X121758766Y-58731356D01*
X121785488Y-58711058D01*
X121785995Y-58710771D01*
X121787746Y-58709783D01*
X121880629Y-58629881D01*
X121903164Y-58614463D01*
X121904285Y-58613865D01*
X121946626Y-58591295D01*
X121971042Y-58581448D01*
X122019689Y-58567621D01*
X122038508Y-58562273D01*
X122161263Y-58532779D01*
X122161267Y-58532778D01*
X122166089Y-58531494D01*
X122171411Y-58529939D01*
X122176140Y-58528432D01*
X122333989Y-58473891D01*
X122335944Y-58473153D01*
X122337311Y-58472638D01*
X122347629Y-58465996D01*
X122367284Y-58455705D01*
X122425641Y-58431534D01*
X122551082Y-58335280D01*
X122647336Y-58209839D01*
X122707844Y-58063760D01*
X122728482Y-57906998D01*
X122722094Y-57858479D01*
X122709568Y-57763330D01*
X122707844Y-57750236D01*
X122647336Y-57604157D01*
X122551082Y-57478716D01*
X122425641Y-57382462D01*
X122386195Y-57366123D01*
X122279562Y-57321954D01*
X122279560Y-57321953D01*
X122196608Y-57311033D01*
X122132711Y-57282767D01*
X122094240Y-57224442D01*
X122093409Y-57154577D01*
X122125110Y-57100415D01*
X122137810Y-57087715D01*
X122141772Y-57084084D01*
X122172794Y-57058055D01*
X122193044Y-57022978D01*
X122195933Y-57018445D01*
X122219153Y-56985284D01*
X122219155Y-56985276D01*
X122221416Y-56980428D01*
X122228354Y-56963679D01*
X122230183Y-56958652D01*
X122230188Y-56958645D01*
X122237222Y-56918747D01*
X122238379Y-56913529D01*
X122248863Y-56874407D01*
X122245335Y-56834089D01*
X122245100Y-56828686D01*
X122245100Y-54175317D01*
X122249638Y-54142079D01*
X122250334Y-54139577D01*
X122250334Y-54139575D01*
X122250335Y-54139572D01*
X122259515Y-54017389D01*
X122264546Y-53990561D01*
X122264549Y-53990553D01*
X122272645Y-53963970D01*
X122278897Y-53943447D01*
X122289202Y-53919212D01*
X122323346Y-53857949D01*
X122389303Y-53750276D01*
X122391817Y-53745937D01*
X122394477Y-53741076D01*
X122396744Y-53736686D01*
X122457136Y-53612526D01*
X122469822Y-53586446D01*
X122471317Y-53583134D01*
X122473902Y-53571185D01*
X122480533Y-53549965D01*
X122504644Y-53491760D01*
X122521298Y-53365259D01*
X122525282Y-53334999D01*
X122525282Y-53334996D01*
X122504644Y-53178237D01*
X122504644Y-53178236D01*
X122444136Y-53032157D01*
X122347882Y-52906716D01*
X122222441Y-52810462D01*
X122076362Y-52749954D01*
X122076360Y-52749953D01*
X121919601Y-52729316D01*
X121919599Y-52729316D01*
X121762839Y-52749953D01*
X121762837Y-52749954D01*
X121616760Y-52810461D01*
X121491318Y-52906716D01*
X121395063Y-53032158D01*
X121334556Y-53178235D01*
X121334555Y-53178237D01*
X121313918Y-53334996D01*
X121313918Y-53334999D01*
X121334556Y-53491763D01*
X121361796Y-53557526D01*
X121364492Y-53565540D01*
X121370666Y-53589096D01*
X121370668Y-53589101D01*
X121372022Y-53591884D01*
X121442452Y-53736685D01*
X121444718Y-53741072D01*
X121447379Y-53745935D01*
X121447380Y-53745936D01*
X121449898Y-53750281D01*
X121515852Y-53857951D01*
X121549995Y-53919211D01*
X121560301Y-53943448D01*
X121574649Y-53990553D01*
X121579681Y-54017390D01*
X121588864Y-54139571D01*
X121588864Y-54139574D01*
X121588865Y-54139576D01*
X121590164Y-54144610D01*
X121594100Y-54175601D01*
X121594100Y-56659411D01*
X121574415Y-56726450D01*
X121557781Y-56747092D01*
X118570293Y-59734581D01*
X118508970Y-59768066D01*
X118482612Y-59770900D01*
X115349789Y-59770900D01*
X115282750Y-59751215D01*
X115262108Y-59734581D01*
X114514760Y-58987234D01*
X114494465Y-58960522D01*
X114493186Y-58958256D01*
X114493183Y-58958252D01*
X114413286Y-58865371D01*
X114397867Y-58842837D01*
X114394857Y-58837191D01*
X114374696Y-58799369D01*
X114364850Y-58774953D01*
X114346327Y-58709783D01*
X114345675Y-58707489D01*
X114316175Y-58584711D01*
X114314884Y-58579861D01*
X114313328Y-58574544D01*
X114311828Y-58569840D01*
X114257315Y-58412073D01*
X114256091Y-58408825D01*
X114256090Y-58408823D01*
X114256089Y-58408820D01*
X114249426Y-58398460D01*
X114239163Y-58378849D01*
X114214936Y-58320359D01*
X114214935Y-58320358D01*
X114214935Y-58320357D01*
X114174177Y-58267241D01*
X114119631Y-58196155D01*
X114094437Y-58130988D01*
X114108475Y-58062543D01*
X114149107Y-58020435D01*
X114148546Y-58019766D01*
X114154889Y-58014443D01*
X114156010Y-58013281D01*
X114156855Y-58012794D01*
X114182881Y-57981776D01*
X114186522Y-57977802D01*
X116125706Y-56038619D01*
X116187030Y-56005134D01*
X116213388Y-56002300D01*
X118641280Y-56002300D01*
X118674518Y-56006838D01*
X118675975Y-56007243D01*
X118677019Y-56007533D01*
X118677020Y-56007534D01*
X118677021Y-56007534D01*
X118677025Y-56007535D01*
X118799203Y-56016715D01*
X118826029Y-56021744D01*
X118873150Y-56036097D01*
X118897385Y-56046403D01*
X118958648Y-56080547D01*
X118998700Y-56105081D01*
X119066352Y-56146522D01*
X119070758Y-56149073D01*
X119070762Y-56149075D01*
X119075623Y-56151731D01*
X119079943Y-56153960D01*
X119230098Y-56226996D01*
X119231714Y-56227726D01*
X119233331Y-56228457D01*
X119245318Y-56231055D01*
X119266505Y-56237681D01*
X119320760Y-56260155D01*
X119324836Y-56261843D01*
X119324838Y-56261844D01*
X119447488Y-56277991D01*
X119481599Y-56282482D01*
X119481600Y-56282482D01*
X119481601Y-56282482D01*
X119533853Y-56275602D01*
X119638362Y-56261844D01*
X119784441Y-56201336D01*
X119909882Y-56105082D01*
X120006136Y-55979641D01*
X120066644Y-55833562D01*
X120087282Y-55676800D01*
X120086994Y-55674616D01*
X120066644Y-55520039D01*
X120066644Y-55520038D01*
X120006136Y-55373959D01*
X119909882Y-55248518D01*
X119784441Y-55152264D01*
X119710631Y-55121691D01*
X119638362Y-55091756D01*
X119638360Y-55091755D01*
X119481601Y-55071118D01*
X119481599Y-55071118D01*
X119324836Y-55091756D01*
X119259071Y-55118996D01*
X119251058Y-55121691D01*
X119227501Y-55127865D01*
X119227496Y-55127867D01*
X119128222Y-55176153D01*
X119079936Y-55199640D01*
X119075597Y-55201879D01*
X119070745Y-55204531D01*
X119066353Y-55207075D01*
X118958646Y-55273052D01*
X118955578Y-55274762D01*
X118897384Y-55307194D01*
X118873151Y-55317499D01*
X118826037Y-55331850D01*
X118799198Y-55336882D01*
X118677025Y-55346063D01*
X118677021Y-55346064D01*
X118674803Y-55346636D01*
X118671989Y-55347363D01*
X118640992Y-55351300D01*
X116044122Y-55351300D01*
X116038718Y-55351064D01*
X116033307Y-55350590D01*
X115998392Y-55347535D01*
X115998391Y-55347535D01*
X115959291Y-55358012D01*
X115954011Y-55359183D01*
X115914159Y-55366210D01*
X115909161Y-55368029D01*
X115892317Y-55375006D01*
X115887513Y-55377246D01*
X115854366Y-55400456D01*
X115849806Y-55403362D01*
X115814748Y-55423604D01*
X115814740Y-55423610D01*
X115788723Y-55454615D01*
X115785069Y-55458604D01*
X114524537Y-56719135D01*
X114463214Y-56752620D01*
X114393522Y-56747636D01*
X114337589Y-56705764D01*
X114322297Y-56678910D01*
X114265736Y-56542359D01*
X114169482Y-56416918D01*
X114044041Y-56320664D01*
X113970231Y-56290091D01*
X113897962Y-56260156D01*
X113897960Y-56260155D01*
X113741201Y-56239518D01*
X113741199Y-56239518D01*
X113584436Y-56260156D01*
X113518671Y-56287396D01*
X113510658Y-56290091D01*
X113487101Y-56296265D01*
X113487096Y-56296267D01*
X113387822Y-56344553D01*
X113339536Y-56368040D01*
X113335197Y-56370279D01*
X113330345Y-56372931D01*
X113325953Y-56375475D01*
X113218246Y-56441452D01*
X113204448Y-56449141D01*
X113156984Y-56475594D01*
X113132751Y-56485899D01*
X113085637Y-56500250D01*
X113058798Y-56505282D01*
X112936625Y-56514463D01*
X112936621Y-56514464D01*
X112934403Y-56515036D01*
X112931589Y-56515763D01*
X112900592Y-56519700D01*
X111929322Y-56519700D01*
X111923918Y-56519464D01*
X111918507Y-56518990D01*
X111883592Y-56515935D01*
X111883591Y-56515935D01*
X111844491Y-56526412D01*
X111839211Y-56527583D01*
X111799359Y-56534610D01*
X111794361Y-56536429D01*
X111777517Y-56543406D01*
X111772713Y-56545646D01*
X111739566Y-56568856D01*
X111735006Y-56571762D01*
X111699948Y-56592004D01*
X111699940Y-56592010D01*
X111673923Y-56623015D01*
X111670269Y-56627004D01*
X106282038Y-62015234D01*
X106255335Y-62035523D01*
X106253066Y-62036803D01*
X106253057Y-62036810D01*
X106160170Y-62116711D01*
X106137636Y-62132130D01*
X106094171Y-62155299D01*
X106069746Y-62165149D01*
X106002291Y-62184323D01*
X106002292Y-62184323D01*
X105879532Y-62213817D01*
X105874758Y-62215087D01*
X105871325Y-62216088D01*
X105869480Y-62216626D01*
X105864704Y-62218147D01*
X105706679Y-62272752D01*
X105703300Y-62274030D01*
X105703295Y-62274032D01*
X105703294Y-62274033D01*
X105703290Y-62274035D01*
X105703291Y-62274035D01*
X105693021Y-62280652D01*
X105673316Y-62290974D01*
X105615159Y-62315063D01*
X105615158Y-62315064D01*
X105489719Y-62411316D01*
X105393463Y-62536760D01*
X105332956Y-62682837D01*
X105332955Y-62682839D01*
X105312318Y-62839598D01*
X105312318Y-62839601D01*
X105332955Y-62996360D01*
X105332956Y-62996362D01*
X105393464Y-63142441D01*
X105489718Y-63267882D01*
X105615159Y-63364136D01*
X105751707Y-63420696D01*
X105806110Y-63464535D01*
X105828175Y-63530829D01*
X105810896Y-63598529D01*
X105791935Y-63622937D01*
X105307303Y-64107570D01*
X105303314Y-64111225D01*
X105272305Y-64137245D01*
X105252062Y-64172306D01*
X105249156Y-64176866D01*
X105225946Y-64210013D01*
X105223706Y-64214817D01*
X105216729Y-64231661D01*
X105214910Y-64236659D01*
X105207883Y-64276511D01*
X105206712Y-64281791D01*
X105196235Y-64320891D01*
X105199764Y-64361213D01*
X105200000Y-64366620D01*
X105199999Y-66571276D01*
X105195464Y-66604504D01*
X105194765Y-66607014D01*
X105194762Y-66607030D01*
X105185583Y-66729194D01*
X105180551Y-66756035D01*
X105166198Y-66803154D01*
X105155893Y-66827387D01*
X105130327Y-66873258D01*
X105121752Y-66888646D01*
X105121752Y-66888647D01*
X105055827Y-66996270D01*
X105053366Y-67000510D01*
X105050699Y-67005370D01*
X105048377Y-67009859D01*
X104975262Y-67160184D01*
X104973773Y-67163483D01*
X104973773Y-67163484D01*
X104971186Y-67175438D01*
X104964554Y-67196659D01*
X104940455Y-67254840D01*
X104919818Y-67411598D01*
X104919818Y-67411601D01*
X79395231Y-67411601D01*
X79420299Y-59402234D01*
X80570729Y-59402234D01*
X80581788Y-59460679D01*
X80590652Y-59519490D01*
X80593162Y-59527627D01*
X80595978Y-59535675D01*
X80623777Y-59588272D01*
X80649576Y-59641844D01*
X80654362Y-59648865D01*
X80659431Y-59655732D01*
X80659434Y-59655738D01*
X80701495Y-59697799D01*
X80735623Y-59734581D01*
X80741947Y-59741396D01*
X80749210Y-59747188D01*
X80748689Y-59747841D01*
X80760930Y-59757234D01*
X82906893Y-61903196D01*
X82927346Y-61930189D01*
X82928423Y-61932109D01*
X83032475Y-62053727D01*
X83045534Y-62072154D01*
X83096561Y-62160183D01*
X83099280Y-62165438D01*
X83148069Y-62271845D01*
X83148071Y-62271849D01*
X83150292Y-62276394D01*
X83152805Y-62281231D01*
X83155090Y-62285392D01*
X83158326Y-62290974D01*
X83230489Y-62415468D01*
X83230490Y-62415470D01*
X83230496Y-62415479D01*
X83235552Y-62423352D01*
X83242201Y-62432738D01*
X83247971Y-62440142D01*
X83375308Y-62588977D01*
X83378514Y-62592452D01*
X83378515Y-62592453D01*
X83383043Y-62597361D01*
X83382677Y-62597697D01*
X83391084Y-62606656D01*
X83391718Y-62607482D01*
X83517159Y-62703736D01*
X83663238Y-62764244D01*
X83741619Y-62774563D01*
X83819999Y-62784882D01*
X83820000Y-62784882D01*
X83820001Y-62784882D01*
X83872253Y-62778002D01*
X83976762Y-62764244D01*
X84122841Y-62703736D01*
X84248282Y-62607482D01*
X84344536Y-62482041D01*
X84405044Y-62335962D01*
X84425682Y-62179200D01*
X84423355Y-62161528D01*
X84405044Y-62022439D01*
X84405044Y-62022438D01*
X84344536Y-61876359D01*
X84344535Y-61876358D01*
X84344535Y-61876357D01*
X84248283Y-61750919D01*
X84243304Y-61747098D01*
X84229339Y-61734595D01*
X84226859Y-61732011D01*
X84080940Y-61607170D01*
X84073538Y-61601401D01*
X84070012Y-61598903D01*
X84064154Y-61594753D01*
X84056270Y-61589690D01*
X84056268Y-61589689D01*
X83988846Y-61550607D01*
X83926192Y-61514290D01*
X83922031Y-61512005D01*
X83917194Y-61509492D01*
X83912649Y-61507271D01*
X83912645Y-61507269D01*
X83806238Y-61458480D01*
X83800989Y-61455764D01*
X83772016Y-61438970D01*
X83712954Y-61404734D01*
X83694527Y-61391676D01*
X83572909Y-61287624D01*
X83572905Y-61287622D01*
X83572901Y-61287618D01*
X83568717Y-61285162D01*
X83543810Y-61265907D01*
X81512819Y-59234915D01*
X81479334Y-59173592D01*
X81476500Y-59147234D01*
X81476500Y-58470801D01*
X106023518Y-58470801D01*
X106044155Y-58627560D01*
X106044156Y-58627562D01*
X106087150Y-58731360D01*
X106104664Y-58773641D01*
X106200918Y-58899082D01*
X106326359Y-58995336D01*
X106472438Y-59055844D01*
X106550819Y-59066163D01*
X106629199Y-59076482D01*
X106629200Y-59076482D01*
X106629201Y-59076482D01*
X106681453Y-59069602D01*
X106785962Y-59055844D01*
X106932041Y-58995336D01*
X107057482Y-58899082D01*
X107153736Y-58773641D01*
X107180981Y-58707860D01*
X107184733Y-58700305D01*
X107197032Y-58679270D01*
X107250633Y-58524142D01*
X107252141Y-58519411D01*
X107253696Y-58514089D01*
X107254980Y-58509267D01*
X107273657Y-58431534D01*
X107284475Y-58386508D01*
X107299035Y-58335280D01*
X107303650Y-58319042D01*
X107313497Y-58294626D01*
X107336664Y-58251164D01*
X107352085Y-58228627D01*
X107431985Y-58135746D01*
X107434627Y-58131264D01*
X107453758Y-58106566D01*
X110080507Y-55479819D01*
X110141831Y-55446334D01*
X110168189Y-55443500D01*
X110665680Y-55443500D01*
X110698918Y-55448038D01*
X110700375Y-55448443D01*
X110701419Y-55448733D01*
X110701420Y-55448734D01*
X110701421Y-55448734D01*
X110701425Y-55448735D01*
X110823603Y-55457915D01*
X110850429Y-55462944D01*
X110897550Y-55477297D01*
X110921785Y-55487603D01*
X110983048Y-55521747D01*
X111023100Y-55546281D01*
X111090752Y-55587722D01*
X111095158Y-55590273D01*
X111095162Y-55590275D01*
X111100023Y-55592931D01*
X111104343Y-55595160D01*
X111254498Y-55668196D01*
X111256114Y-55668926D01*
X111257731Y-55669657D01*
X111269718Y-55672255D01*
X111290904Y-55678881D01*
X111349236Y-55703043D01*
X111349238Y-55703044D01*
X111471888Y-55719191D01*
X111505999Y-55723682D01*
X111506000Y-55723682D01*
X111506001Y-55723682D01*
X111558253Y-55716802D01*
X111662762Y-55703044D01*
X111808841Y-55642536D01*
X111934282Y-55546282D01*
X112030536Y-55420841D01*
X112091044Y-55274762D01*
X112111682Y-55118000D01*
X112091044Y-54961238D01*
X112030536Y-54815159D01*
X111934282Y-54689718D01*
X111808841Y-54593464D01*
X111735031Y-54562891D01*
X111662762Y-54532956D01*
X111662760Y-54532955D01*
X111506001Y-54512318D01*
X111505999Y-54512318D01*
X111349236Y-54532956D01*
X111283471Y-54560196D01*
X111275458Y-54562891D01*
X111251901Y-54569065D01*
X111251896Y-54569067D01*
X111152622Y-54617353D01*
X111104336Y-54640840D01*
X111099997Y-54643079D01*
X111095145Y-54645731D01*
X111090753Y-54648275D01*
X110983046Y-54714252D01*
X110969248Y-54721941D01*
X110921784Y-54748394D01*
X110897551Y-54758699D01*
X110850437Y-54773050D01*
X110823598Y-54778082D01*
X110701425Y-54787263D01*
X110701421Y-54787264D01*
X110699203Y-54787836D01*
X110696389Y-54788563D01*
X110665392Y-54792500D01*
X109998913Y-54792500D01*
X109993511Y-54792264D01*
X109986126Y-54791618D01*
X109953192Y-54788736D01*
X109953191Y-54788736D01*
X109914099Y-54799211D01*
X109908819Y-54800382D01*
X109868954Y-54807412D01*
X109863962Y-54809229D01*
X109847117Y-54816206D01*
X109842313Y-54818446D01*
X109809163Y-54841658D01*
X109804602Y-54844564D01*
X109769548Y-54864804D01*
X109769545Y-54864806D01*
X109769543Y-54864807D01*
X109769542Y-54864809D01*
X109743523Y-54895815D01*
X109739869Y-54899803D01*
X106993238Y-57646434D01*
X106966535Y-57666723D01*
X106964266Y-57668003D01*
X106964257Y-57668010D01*
X106871370Y-57747911D01*
X106848836Y-57763330D01*
X106805371Y-57786499D01*
X106780946Y-57796349D01*
X106713491Y-57815523D01*
X106713492Y-57815523D01*
X106590732Y-57845017D01*
X106585958Y-57846287D01*
X106582525Y-57847288D01*
X106580680Y-57847826D01*
X106575904Y-57849347D01*
X106417879Y-57903952D01*
X106414500Y-57905230D01*
X106414495Y-57905232D01*
X106414494Y-57905233D01*
X106414490Y-57905235D01*
X106414491Y-57905235D01*
X106404221Y-57911852D01*
X106384516Y-57922174D01*
X106326359Y-57946263D01*
X106326358Y-57946264D01*
X106200919Y-58042516D01*
X106104663Y-58167960D01*
X106044156Y-58314037D01*
X106044155Y-58314039D01*
X106023518Y-58470798D01*
X106023518Y-58470801D01*
X81476500Y-58470801D01*
X81476500Y-53679565D01*
X81496185Y-53612526D01*
X81512819Y-53591884D01*
X82954284Y-52150419D01*
X83015607Y-52116934D01*
X83041965Y-52114100D01*
X111477979Y-52114100D01*
X111511536Y-52118727D01*
X111513644Y-52119320D01*
X111673225Y-52131741D01*
X111695471Y-52135534D01*
X111793823Y-52161705D01*
X111799425Y-52163486D01*
X111882956Y-52194497D01*
X111909118Y-52204210D01*
X111913771Y-52205812D01*
X111918971Y-52207464D01*
X111923657Y-52208831D01*
X112069046Y-52247520D01*
X112069042Y-52247520D01*
X112078219Y-52249518D01*
X112078220Y-52249518D01*
X112089567Y-52251451D01*
X112089570Y-52251451D01*
X112098834Y-52252599D01*
X112098841Y-52252599D01*
X112098845Y-52252600D01*
X112294156Y-52267803D01*
X112295425Y-52267853D01*
X112305605Y-52268260D01*
X112305584Y-52268769D01*
X112317835Y-52269155D01*
X112318799Y-52269282D01*
X112318800Y-52269282D01*
X112475562Y-52248644D01*
X112621641Y-52188136D01*
X112747082Y-52091882D01*
X112843336Y-51966441D01*
X112903844Y-51820362D01*
X112924482Y-51663600D01*
X112912987Y-51576290D01*
X112903844Y-51506839D01*
X112903844Y-51506838D01*
X112843336Y-51360759D01*
X112747082Y-51235318D01*
X112621641Y-51139064D01*
X112582849Y-51122996D01*
X112528136Y-51100333D01*
X112475562Y-51078556D01*
X112423307Y-51071676D01*
X112318802Y-51057918D01*
X112318800Y-51057918D01*
X112312567Y-51058738D01*
X112293855Y-51059771D01*
X112290276Y-51059697D01*
X112132923Y-51071946D01*
X112098830Y-51074600D01*
X112098829Y-51074600D01*
X112089542Y-51075751D01*
X112089546Y-51075750D01*
X112078196Y-51077685D01*
X112078197Y-51077685D01*
X112069060Y-51079676D01*
X112069059Y-51079676D01*
X111923621Y-51118377D01*
X111918875Y-51119762D01*
X111913689Y-51121414D01*
X111909093Y-51122997D01*
X111799452Y-51163702D01*
X111793814Y-51165494D01*
X111695478Y-51191662D01*
X111673215Y-51195458D01*
X111513643Y-51207879D01*
X111511916Y-51208329D01*
X111508948Y-51209101D01*
X111477713Y-51213100D01*
X82832783Y-51213100D01*
X82825844Y-51212710D01*
X82811569Y-51211102D01*
X82786964Y-51208329D01*
X82728511Y-51219389D01*
X82669711Y-51228252D01*
X82661556Y-51230767D01*
X82653530Y-51233575D01*
X82653529Y-51233576D01*
X82653527Y-51233576D01*
X82653524Y-51233578D01*
X82600926Y-51261377D01*
X82547358Y-51287175D01*
X82540308Y-51291980D01*
X82533461Y-51297035D01*
X82512437Y-51318058D01*
X82491413Y-51339083D01*
X82474509Y-51354768D01*
X82447803Y-51379547D01*
X82442013Y-51386808D01*
X82441362Y-51386288D01*
X82431967Y-51398528D01*
X80727804Y-53102692D01*
X80722617Y-53107327D01*
X80692033Y-53131717D01*
X80692029Y-53131721D01*
X80658519Y-53180871D01*
X80623206Y-53228718D01*
X80619216Y-53236267D01*
X80615528Y-53243926D01*
X80597992Y-53300777D01*
X80578353Y-53356901D01*
X80576771Y-53365259D01*
X80575500Y-53373700D01*
X80575500Y-53433173D01*
X80573275Y-53492609D01*
X80574316Y-53501843D01*
X80573485Y-53501936D01*
X80575500Y-53517235D01*
X80575500Y-59356417D01*
X80575110Y-59363355D01*
X80573724Y-59375654D01*
X80570729Y-59402234D01*
X79420299Y-59402234D01*
X79442582Y-52282971D01*
X79446804Y-52251282D01*
X79459418Y-52204210D01*
X79462031Y-52194460D01*
X79506681Y-52039476D01*
X79508361Y-52034460D01*
X79565727Y-51885015D01*
X79626966Y-51737172D01*
X79628979Y-51732806D01*
X79702111Y-51589278D01*
X79709288Y-51576290D01*
X79779255Y-51449694D01*
X79781467Y-51446008D01*
X79869580Y-51310327D01*
X79904312Y-51261377D01*
X79961754Y-51180420D01*
X79964086Y-51177343D01*
X80065255Y-51052409D01*
X80067137Y-51050198D01*
X80172373Y-50932439D01*
X80174692Y-50929987D01*
X80288387Y-50816292D01*
X80290839Y-50813973D01*
X80408598Y-50708737D01*
X80410809Y-50706855D01*
X80535743Y-50605686D01*
X80538820Y-50603354D01*
X80668727Y-50511180D01*
X80678646Y-50504737D01*
X80804408Y-50423067D01*
X80808094Y-50420855D01*
X80947678Y-50343711D01*
X80959663Y-50337603D01*
X81091206Y-50270579D01*
X81095572Y-50268566D01*
X81243415Y-50207327D01*
X81392854Y-50149964D01*
X81397868Y-50148283D01*
X81552879Y-50103625D01*
X81705796Y-50062651D01*
X81711396Y-50061427D01*
X81873884Y-50033818D01*
X82026391Y-50009664D01*
X82032568Y-50009003D01*
X82216166Y-49998693D01*
X82347980Y-49991784D01*
X82351222Y-49991700D01*
X121347978Y-49991700D01*
X121351219Y-49991784D01*
G37*
%TD.AperFunction*%
%TD*%
%TA.AperFunction,Conductor*%
%TO.N,+5V*%
G36*
X112314737Y-51267353D02*
G01*
X112318796Y-51275335D01*
X112318831Y-51276214D01*
X112319800Y-51663600D01*
X112318831Y-52050985D01*
X112315383Y-52059250D01*
X112307102Y-52062656D01*
X112306223Y-52062621D01*
X112119460Y-52048083D01*
X112117359Y-52047725D01*
X111978864Y-52010870D01*
X111978332Y-52010701D01*
X111859004Y-51966400D01*
X111808316Y-51952912D01*
X111719207Y-51929200D01*
X111719206Y-51929200D01*
X111529592Y-51914440D01*
X111521610Y-51910381D01*
X111518800Y-51902775D01*
X111518800Y-51424424D01*
X111522227Y-51416151D01*
X111529589Y-51412760D01*
X111719207Y-51398000D01*
X111859003Y-51360799D01*
X111978343Y-51316493D01*
X111978855Y-51316330D01*
X112117368Y-51279472D01*
X112119450Y-51279117D01*
X112306225Y-51264578D01*
X112314737Y-51267353D01*
G37*
%TD.AperFunction*%
%TD*%
%TA.AperFunction,Conductor*%
%TO.N,+5V*%
G36*
X83439314Y-61443773D02*
G01*
X83583831Y-61567416D01*
X83708986Y-61639962D01*
X83824701Y-61693018D01*
X83825188Y-61693271D01*
X83949174Y-61765140D01*
X83950913Y-61766372D01*
X83978870Y-61790291D01*
X84093258Y-61888156D01*
X84097317Y-61896138D01*
X84094542Y-61904652D01*
X84093946Y-61905298D01*
X83820707Y-62179907D01*
X83546098Y-62453146D01*
X83537817Y-62456552D01*
X83529552Y-62453104D01*
X83528956Y-62452458D01*
X83407172Y-62310113D01*
X83405940Y-62308374D01*
X83334071Y-62184388D01*
X83333818Y-62183901D01*
X83280762Y-62068186D01*
X83208216Y-61943031D01*
X83084573Y-61798514D01*
X83081799Y-61790002D01*
X83085190Y-61782638D01*
X83423438Y-61444390D01*
X83431710Y-61440964D01*
X83439314Y-61443773D01*
G37*
%TD.AperFunction*%
%TD*%
%TA.AperFunction,Conductor*%
%TO.N,AO_int_2*%
G36*
X107114171Y-57824400D02*
G01*
X107275599Y-57985828D01*
X107279026Y-57994101D01*
X107276196Y-58001731D01*
X107172490Y-58122287D01*
X107115600Y-58229015D01*
X107085649Y-58334388D01*
X107055749Y-58458832D01*
X107055590Y-58459376D01*
X107002800Y-58612157D01*
X106996860Y-58618857D01*
X106987921Y-58619394D01*
X106987290Y-58619156D01*
X106633004Y-58473363D01*
X106626657Y-58467045D01*
X106626636Y-58466995D01*
X106572067Y-58334388D01*
X106480843Y-58112708D01*
X106480864Y-58103755D01*
X106487211Y-58097437D01*
X106487811Y-58097210D01*
X106640645Y-58044399D01*
X106641142Y-58044254D01*
X106765610Y-58014349D01*
X106870984Y-57984398D01*
X106977712Y-57927507D01*
X107098271Y-57823802D01*
X107106775Y-57821006D01*
X107114171Y-57824400D01*
G37*
%TD.AperFunction*%
%TD*%
%TA.AperFunction,Conductor*%
%TO.N,AO_int_2*%
G36*
X111357418Y-54759273D02*
G01*
X111357696Y-54759888D01*
X111505123Y-55113498D01*
X111505144Y-55122452D01*
X111505123Y-55122502D01*
X111357696Y-55476111D01*
X111351349Y-55482429D01*
X111342395Y-55482408D01*
X111341789Y-55482134D01*
X111196420Y-55411427D01*
X111195924Y-55411156D01*
X111086784Y-55344301D01*
X110991093Y-55290969D01*
X110991088Y-55290967D01*
X110875402Y-55255729D01*
X110875396Y-55255728D01*
X110716823Y-55243813D01*
X110708830Y-55239776D01*
X110706000Y-55232146D01*
X110706000Y-55003853D01*
X110709427Y-54995580D01*
X110716821Y-54992186D01*
X110875398Y-54980270D01*
X110875400Y-54980269D01*
X110875402Y-54980269D01*
X110991088Y-54945031D01*
X110991089Y-54945030D01*
X110991094Y-54945029D01*
X111086784Y-54891697D01*
X111195933Y-54824836D01*
X111196416Y-54824572D01*
X111341781Y-54753868D01*
X111350718Y-54753332D01*
X111357418Y-54759273D01*
G37*
%TD.AperFunction*%
%TD*%
%TA.AperFunction,Conductor*%
%TO.N,CANL_int*%
G36*
X105647919Y-66615027D02*
G01*
X105651313Y-66622423D01*
X105663228Y-66780996D01*
X105663229Y-66781002D01*
X105698467Y-66896688D01*
X105698469Y-66896693D01*
X105751801Y-66992384D01*
X105818656Y-67101524D01*
X105818928Y-67102021D01*
X105889630Y-67247379D01*
X105890167Y-67256318D01*
X105884227Y-67263018D01*
X105883611Y-67263296D01*
X105530002Y-67410723D01*
X105521048Y-67410744D01*
X105520998Y-67410723D01*
X105167388Y-67263296D01*
X105161070Y-67256949D01*
X105161091Y-67247995D01*
X105161359Y-67247401D01*
X105232072Y-67102016D01*
X105232339Y-67101528D01*
X105232342Y-67101524D01*
X105299197Y-66992384D01*
X105352529Y-66896694D01*
X105387770Y-66780998D01*
X105399686Y-66622423D01*
X105403724Y-66614430D01*
X105411354Y-66611600D01*
X105639646Y-66611600D01*
X105647919Y-66615027D01*
G37*
%TD.AperFunction*%
%TD*%
%TA.AperFunction,Conductor*%
%TO.N,CANL_int*%
G36*
X119333018Y-55318073D02*
G01*
X119333296Y-55318688D01*
X119480723Y-55672298D01*
X119480744Y-55681252D01*
X119480723Y-55681302D01*
X119333296Y-56034911D01*
X119326949Y-56041229D01*
X119317995Y-56041208D01*
X119317389Y-56040934D01*
X119172020Y-55970227D01*
X119171524Y-55969956D01*
X119062384Y-55903101D01*
X118966693Y-55849769D01*
X118966688Y-55849767D01*
X118851002Y-55814529D01*
X118850996Y-55814528D01*
X118692423Y-55802613D01*
X118684430Y-55798576D01*
X118681600Y-55790946D01*
X118681600Y-55562653D01*
X118685027Y-55554380D01*
X118692421Y-55550986D01*
X118850998Y-55539070D01*
X118851000Y-55539069D01*
X118851002Y-55539069D01*
X118966688Y-55503831D01*
X118966689Y-55503830D01*
X118966694Y-55503829D01*
X119062384Y-55450497D01*
X119171533Y-55383636D01*
X119172016Y-55383372D01*
X119317381Y-55312668D01*
X119326318Y-55312132D01*
X119333018Y-55318073D01*
G37*
%TD.AperFunction*%
%TD*%
%TA.AperFunction,Conductor*%
%TO.N,CANH_int*%
G36*
X100307003Y-71766428D02*
G01*
X100845807Y-71988637D01*
X100852148Y-71994959D01*
X100852162Y-71994992D01*
X101074371Y-72533796D01*
X101074357Y-72542751D01*
X101068016Y-72549073D01*
X101067125Y-72549399D01*
X100824879Y-72627005D01*
X100823219Y-72627406D01*
X100695508Y-72648543D01*
X100693598Y-72648700D01*
X100572917Y-72648700D01*
X100572422Y-72648678D01*
X100556498Y-72647285D01*
X100529648Y-72644935D01*
X100529645Y-72644935D01*
X100488174Y-72656047D01*
X100487676Y-72656158D01*
X100445407Y-72663612D01*
X100434144Y-72670113D01*
X100431324Y-72671281D01*
X100418770Y-72674645D01*
X100418763Y-72674648D01*
X100383601Y-72699268D01*
X100383171Y-72699542D01*
X100346000Y-72721002D01*
X100345994Y-72721008D01*
X100323864Y-72747380D01*
X100319582Y-72750582D01*
X100289402Y-72763753D01*
X100289397Y-72763756D01*
X100097659Y-72921376D01*
X100089092Y-72923983D01*
X100081956Y-72920611D01*
X99920188Y-72758843D01*
X99916761Y-72750570D01*
X99919422Y-72743141D01*
X100077043Y-72551399D01*
X100150950Y-72382046D01*
X100180935Y-72213689D01*
X100213392Y-72017573D01*
X100213793Y-72015918D01*
X100220508Y-71994959D01*
X100291401Y-71773672D01*
X100297187Y-71766841D01*
X100306112Y-71766102D01*
X100307003Y-71766428D01*
G37*
%TD.AperFunction*%
%TD*%
%TA.AperFunction,Conductor*%
%TO.N,CANH_int*%
G36*
X113592618Y-56486473D02*
G01*
X113592896Y-56487088D01*
X113740323Y-56840698D01*
X113740344Y-56849652D01*
X113740323Y-56849702D01*
X113592896Y-57203311D01*
X113586549Y-57209629D01*
X113577595Y-57209608D01*
X113576989Y-57209334D01*
X113431620Y-57138627D01*
X113431124Y-57138356D01*
X113321984Y-57071501D01*
X113226293Y-57018169D01*
X113226288Y-57018167D01*
X113110602Y-56982929D01*
X113110596Y-56982928D01*
X112952023Y-56971013D01*
X112944030Y-56966976D01*
X112941200Y-56959346D01*
X112941200Y-56731053D01*
X112944627Y-56722780D01*
X112952021Y-56719386D01*
X113110598Y-56707470D01*
X113110600Y-56707469D01*
X113110602Y-56707469D01*
X113226288Y-56672231D01*
X113226289Y-56672230D01*
X113226294Y-56672229D01*
X113321984Y-56618897D01*
X113431133Y-56552036D01*
X113431616Y-56551772D01*
X113576981Y-56481068D01*
X113585918Y-56480532D01*
X113592618Y-56486473D01*
G37*
%TD.AperFunction*%
%TD*%
%TA.AperFunction,Conductor*%
%TO.N,CANH_int*%
G36*
X83830703Y-71632369D02*
G01*
X83837021Y-71638716D01*
X83837476Y-71640043D01*
X83882061Y-71800914D01*
X83882476Y-71803553D01*
X83888187Y-71940866D01*
X83889035Y-72061220D01*
X83889035Y-72061222D01*
X83922750Y-72181205D01*
X84020947Y-72310610D01*
X84023219Y-72319272D01*
X84019900Y-72325956D01*
X83858486Y-72487370D01*
X83850213Y-72490797D01*
X83842069Y-72487497D01*
X83735746Y-72384409D01*
X83735745Y-72384409D01*
X83648007Y-72311377D01*
X83648005Y-72311376D01*
X83647996Y-72311368D01*
X83563636Y-72259320D01*
X83459227Y-72211202D01*
X83459226Y-72211201D01*
X83322112Y-72154418D01*
X83315780Y-72148086D01*
X83315769Y-72139157D01*
X83461837Y-71784202D01*
X83468153Y-71777857D01*
X83821750Y-71632348D01*
X83830703Y-71632369D01*
G37*
%TD.AperFunction*%
%TD*%
%TA.AperFunction,Conductor*%
%TO.N,CANH_int*%
G36*
X106402971Y-62193200D02*
G01*
X106564399Y-62354628D01*
X106567826Y-62362901D01*
X106564996Y-62370531D01*
X106461290Y-62491087D01*
X106404400Y-62597815D01*
X106374449Y-62703188D01*
X106344549Y-62827632D01*
X106344390Y-62828176D01*
X106291600Y-62980957D01*
X106285660Y-62987657D01*
X106276721Y-62988194D01*
X106276090Y-62987956D01*
X105921804Y-62842163D01*
X105915457Y-62835845D01*
X105915436Y-62835795D01*
X105860867Y-62703188D01*
X105769643Y-62481508D01*
X105769664Y-62472555D01*
X105776011Y-62466237D01*
X105776611Y-62466010D01*
X105929445Y-62413199D01*
X105929942Y-62413054D01*
X106054410Y-62383149D01*
X106159784Y-62353198D01*
X106266512Y-62296307D01*
X106387071Y-62192602D01*
X106395575Y-62189806D01*
X106402971Y-62193200D01*
G37*
%TD.AperFunction*%
%TD*%
%TA.AperFunction,Conductor*%
%TO.N,AI_1*%
G36*
X98863421Y-73393772D02*
G01*
X99105311Y-73438799D01*
X99108484Y-73439878D01*
X99305806Y-73540483D01*
X99473567Y-73631789D01*
X99637741Y-73649495D01*
X99817891Y-73535095D01*
X99826712Y-73533554D01*
X99832436Y-73536700D01*
X99994260Y-73698524D01*
X99997687Y-73706797D01*
X99994260Y-73715070D01*
X99994211Y-73715119D01*
X99823296Y-73884040D01*
X99694323Y-74008028D01*
X99582121Y-74114281D01*
X99453148Y-74238269D01*
X99282122Y-74407301D01*
X99273829Y-74410679D01*
X99265639Y-74407266D01*
X99083531Y-74225764D01*
X98852338Y-73995341D01*
X98848898Y-73987076D01*
X98849583Y-73405259D01*
X98853020Y-73396992D01*
X98861297Y-73393575D01*
X98863421Y-73393772D01*
G37*
%TD.AperFunction*%
%TD*%
%TA.AperFunction,Conductor*%
%TO.N,AI_1*%
G36*
X111933219Y-64786227D02*
G01*
X111936613Y-64793623D01*
X111948528Y-64952196D01*
X111948529Y-64952202D01*
X111983767Y-65067888D01*
X111983769Y-65067893D01*
X112037101Y-65163584D01*
X112103956Y-65272724D01*
X112104228Y-65273221D01*
X112174930Y-65418579D01*
X112175467Y-65427518D01*
X112169527Y-65434218D01*
X112168911Y-65434496D01*
X111815302Y-65581923D01*
X111806348Y-65581944D01*
X111806298Y-65581923D01*
X111452688Y-65434496D01*
X111446370Y-65428149D01*
X111446391Y-65419195D01*
X111446659Y-65418601D01*
X111517372Y-65273216D01*
X111517639Y-65272728D01*
X111517642Y-65272724D01*
X111584497Y-65163584D01*
X111637829Y-65067894D01*
X111673070Y-64952198D01*
X111684986Y-64793623D01*
X111689024Y-64785630D01*
X111696654Y-64782800D01*
X111924946Y-64782800D01*
X111933219Y-64786227D01*
G37*
%TD.AperFunction*%
%TD*%
%TA.AperFunction,Conductor*%
%TO.N,AI_1*%
G36*
X106097658Y-71061022D02*
G01*
X106289400Y-71218643D01*
X106458752Y-71292550D01*
X106627109Y-71322535D01*
X106823220Y-71354992D01*
X106824877Y-71355392D01*
X107067125Y-71433000D01*
X107073958Y-71438787D01*
X107074697Y-71447712D01*
X107074371Y-71448603D01*
X106852162Y-71987407D01*
X106845840Y-71993748D01*
X106845807Y-71993762D01*
X106307003Y-72215971D01*
X106298048Y-72215957D01*
X106291726Y-72209616D01*
X106291400Y-72208725D01*
X106213793Y-71966479D01*
X106213392Y-71964819D01*
X106180935Y-71768709D01*
X106180935Y-71768708D01*
X106150950Y-71600352D01*
X106077043Y-71431000D01*
X105919422Y-71239258D01*
X105916816Y-71230692D01*
X105920187Y-71223557D01*
X106081957Y-71061787D01*
X106090229Y-71058361D01*
X106097658Y-71061022D01*
G37*
%TD.AperFunction*%
%TD*%
%TA.AperFunction,Conductor*%
%TO.N,AI_1*%
G36*
X121764699Y-57758637D02*
G01*
X122118995Y-57904434D01*
X122125342Y-57910752D01*
X122125363Y-57910802D01*
X122271156Y-58265088D01*
X122271135Y-58274042D01*
X122264788Y-58280360D01*
X122264157Y-58280598D01*
X122111376Y-58333388D01*
X122110832Y-58333547D01*
X121986388Y-58363447D01*
X121881015Y-58393398D01*
X121774287Y-58450288D01*
X121653731Y-58553994D01*
X121645224Y-58556791D01*
X121637828Y-58553397D01*
X121476400Y-58391969D01*
X121472973Y-58383696D01*
X121475801Y-58376069D01*
X121579507Y-58255510D01*
X121636398Y-58148782D01*
X121666349Y-58043408D01*
X121696254Y-57918940D01*
X121696399Y-57918443D01*
X121749200Y-57765638D01*
X121755139Y-57758940D01*
X121764078Y-57758403D01*
X121764699Y-57758637D01*
G37*
%TD.AperFunction*%
%TD*%
%TA.AperFunction,Conductor*%
%TO.N,AI_2*%
G36*
X106307003Y-73766428D02*
G01*
X106845807Y-73988637D01*
X106852148Y-73994959D01*
X106852162Y-73994992D01*
X107074371Y-74533796D01*
X107074357Y-74542751D01*
X107068016Y-74549073D01*
X107067125Y-74549399D01*
X106824879Y-74627005D01*
X106823219Y-74627406D01*
X106627109Y-74659863D01*
X106458750Y-74689848D01*
X106289402Y-74763754D01*
X106289395Y-74763758D01*
X106097659Y-74921376D01*
X106089092Y-74923983D01*
X106081956Y-74920611D01*
X105920188Y-74758843D01*
X105916761Y-74750570D01*
X105919422Y-74743141D01*
X106077043Y-74551399D01*
X106150950Y-74382046D01*
X106180935Y-74213689D01*
X106213392Y-74017573D01*
X106213793Y-74015918D01*
X106220508Y-73994959D01*
X106291401Y-73773672D01*
X106297187Y-73766841D01*
X106306112Y-73766102D01*
X106307003Y-73766428D01*
G37*
%TD.AperFunction*%
%TD*%
%TA.AperFunction,Conductor*%
%TO.N,AI_2*%
G36*
X114057444Y-58474864D02*
G01*
X114063762Y-58481211D01*
X114063998Y-58481838D01*
X114111957Y-58620636D01*
X114116790Y-58634621D01*
X114116948Y-58635161D01*
X114146849Y-58759610D01*
X114176801Y-58864984D01*
X114233691Y-58971712D01*
X114337396Y-59092269D01*
X114340193Y-59100775D01*
X114336799Y-59108171D01*
X114175371Y-59269599D01*
X114167098Y-59273026D01*
X114159469Y-59270196D01*
X114038912Y-59166491D01*
X113932184Y-59109601D01*
X113932183Y-59109600D01*
X113932182Y-59109600D01*
X113826810Y-59079649D01*
X113826810Y-59079648D01*
X113702361Y-59049748D01*
X113701826Y-59049591D01*
X113549041Y-58996799D01*
X113542342Y-58990860D01*
X113541805Y-58981921D01*
X113542034Y-58981311D01*
X113687837Y-58627002D01*
X113694153Y-58620657D01*
X114048491Y-58474843D01*
X114057444Y-58474864D01*
G37*
%TD.AperFunction*%
%TD*%
%TA.AperFunction,Conductor*%
%TO.N,AI_2*%
G36*
X101401151Y-73766442D02*
G01*
X101407473Y-73772783D01*
X101407799Y-73773674D01*
X101485405Y-74015918D01*
X101485806Y-74017578D01*
X101518262Y-74213688D01*
X101518263Y-74213689D01*
X101548248Y-74382046D01*
X101622155Y-74551399D01*
X101622157Y-74551401D01*
X101622158Y-74551403D01*
X101779776Y-74743140D01*
X101782383Y-74751707D01*
X101779011Y-74758843D01*
X101617243Y-74920611D01*
X101608970Y-74924038D01*
X101601540Y-74921376D01*
X101409803Y-74763758D01*
X101409801Y-74763757D01*
X101409799Y-74763755D01*
X101339564Y-74733104D01*
X101240447Y-74689848D01*
X101072089Y-74659863D01*
X100875978Y-74627406D01*
X100874318Y-74627005D01*
X100632074Y-74549399D01*
X100625241Y-74543612D01*
X100624502Y-74534687D01*
X100624828Y-74533796D01*
X100687411Y-74382047D01*
X100847037Y-73994991D01*
X100853359Y-73988651D01*
X101392197Y-73766428D01*
X101401151Y-73766442D01*
G37*
%TD.AperFunction*%
%TD*%
%TA.AperFunction,Conductor*%
%TO.N,AI_2*%
G36*
X122277711Y-53483301D02*
G01*
X122284029Y-53489648D01*
X122284008Y-53498602D01*
X122283730Y-53499218D01*
X122213025Y-53644579D01*
X122212753Y-53645076D01*
X122145901Y-53754213D01*
X122092569Y-53849903D01*
X122092567Y-53849908D01*
X122057329Y-53965594D01*
X122057328Y-53965600D01*
X122045413Y-54124175D01*
X122041376Y-54132168D01*
X122033746Y-54134998D01*
X121805454Y-54134998D01*
X121797181Y-54131571D01*
X121793787Y-54124175D01*
X121781870Y-53965600D01*
X121781869Y-53965594D01*
X121746631Y-53849908D01*
X121746629Y-53849903D01*
X121693297Y-53754213D01*
X121626444Y-53645076D01*
X121626172Y-53644579D01*
X121623632Y-53639358D01*
X121555468Y-53499216D01*
X121554932Y-53490279D01*
X121560872Y-53483579D01*
X121561474Y-53483306D01*
X121915100Y-53335873D01*
X121924049Y-53335853D01*
X122277711Y-53483301D01*
G37*
%TD.AperFunction*%
%TD*%
M02*
