%TF.GenerationSoftware,KiCad,Pcbnew,7.0.7*%
%TF.CreationDate,2023-12-05T14:15:23+03:00*%
%TF.ProjectId,InterceptRelay,496e7465-7263-4657-9074-52656c61792e,rev?*%
%TF.SameCoordinates,Original*%
%TF.FileFunction,Paste,Top*%
%TF.FilePolarity,Positive*%
%FSLAX46Y46*%
G04 Gerber Fmt 4.6, Leading zero omitted, Abs format (unit mm)*
G04 Created by KiCad (PCBNEW 7.0.7) date 2023-12-05 14:15:23*
%MOMM*%
%LPD*%
G01*
G04 APERTURE LIST*
G04 Aperture macros list*
%AMRoundRect*
0 Rectangle with rounded corners*
0 $1 Rounding radius*
0 $2 $3 $4 $5 $6 $7 $8 $9 X,Y pos of 4 corners*
0 Add a 4 corners polygon primitive as box body*
4,1,4,$2,$3,$4,$5,$6,$7,$8,$9,$2,$3,0*
0 Add four circle primitives for the rounded corners*
1,1,$1+$1,$2,$3*
1,1,$1+$1,$4,$5*
1,1,$1+$1,$6,$7*
1,1,$1+$1,$8,$9*
0 Add four rect primitives between the rounded corners*
20,1,$1+$1,$2,$3,$4,$5,0*
20,1,$1+$1,$4,$5,$6,$7,0*
20,1,$1+$1,$6,$7,$8,$9,0*
20,1,$1+$1,$8,$9,$2,$3,0*%
G04 Aperture macros list end*
%ADD10RoundRect,0.200000X0.200000X0.275000X-0.200000X0.275000X-0.200000X-0.275000X0.200000X-0.275000X0*%
%ADD11RoundRect,0.200000X0.275000X-0.200000X0.275000X0.200000X-0.275000X0.200000X-0.275000X-0.200000X0*%
%ADD12RoundRect,0.225000X-0.375000X0.225000X-0.375000X-0.225000X0.375000X-0.225000X0.375000X0.225000X0*%
%ADD13RoundRect,0.225000X0.225000X0.250000X-0.225000X0.250000X-0.225000X-0.250000X0.225000X-0.250000X0*%
%ADD14RoundRect,0.225000X-0.250000X0.225000X-0.250000X-0.225000X0.250000X-0.225000X0.250000X0.225000X0*%
%ADD15RoundRect,0.225000X-0.225000X-0.250000X0.225000X-0.250000X0.225000X0.250000X-0.225000X0.250000X0*%
%ADD16R,1.780000X2.000000*%
%ADD17RoundRect,0.150000X-0.825000X-0.150000X0.825000X-0.150000X0.825000X0.150000X-0.825000X0.150000X0*%
%ADD18RoundRect,0.218750X0.256250X-0.218750X0.256250X0.218750X-0.256250X0.218750X-0.256250X-0.218750X0*%
%ADD19RoundRect,0.225000X0.375000X-0.225000X0.375000X0.225000X-0.375000X0.225000X-0.375000X-0.225000X0*%
%ADD20RoundRect,0.225000X0.250000X-0.225000X0.250000X0.225000X-0.250000X0.225000X-0.250000X-0.225000X0*%
%ADD21RoundRect,0.200000X-0.200000X-0.275000X0.200000X-0.275000X0.200000X0.275000X-0.200000X0.275000X0*%
%ADD22RoundRect,0.249750X0.305250X1.250250X-0.305250X1.250250X-0.305250X-1.250250X0.305250X-1.250250X0*%
G04 APERTURE END LIST*
D10*
%TO.C,R8*%
X87107000Y-55072198D03*
X85457000Y-55072198D03*
%TD*%
%TO.C,R10*%
X91147400Y-71729600D03*
X89497400Y-71729600D03*
%TD*%
%TO.C,R5*%
X115510000Y-55586198D03*
X113860000Y-55586198D03*
%TD*%
%TO.C,R4*%
X118710000Y-55586198D03*
X117060000Y-55586198D03*
%TD*%
D11*
%TO.C,R3*%
X120956200Y-55051000D03*
X120956200Y-53401000D03*
%TD*%
D12*
%TO.C,D2*%
X120197500Y-64748698D03*
X120197500Y-68048698D03*
%TD*%
D10*
%TO.C,R6*%
X97584000Y-55104698D03*
X95934000Y-55104698D03*
%TD*%
D13*
%TO.C,C4*%
X101535000Y-53040198D03*
X99985000Y-53040198D03*
%TD*%
D14*
%TO.C,C5*%
X99998000Y-55059198D03*
X99998000Y-56609198D03*
%TD*%
%TO.C,C3*%
X112335000Y-52511198D03*
X112335000Y-54061198D03*
%TD*%
D15*
%TO.C,C2*%
X115560000Y-57186198D03*
X117110000Y-57186198D03*
%TD*%
D13*
%TO.C,C8*%
X83679000Y-56661198D03*
X82129000Y-56661198D03*
%TD*%
D11*
%TO.C,R1*%
X122597500Y-62648698D03*
X122597500Y-60998698D03*
%TD*%
D13*
%TO.C,C9*%
X94085000Y-56661198D03*
X92535000Y-56661198D03*
%TD*%
D16*
%TO.C,U3*%
X81775000Y-68651198D03*
X84315000Y-68651198D03*
X86855000Y-68651198D03*
X89395000Y-68651198D03*
X89395000Y-59121198D03*
X86855000Y-59121198D03*
X84315000Y-59121198D03*
X81775000Y-59121198D03*
%TD*%
D10*
%TO.C,R11*%
X97584000Y-56661198D03*
X95934000Y-56661198D03*
%TD*%
D17*
%TO.C,U4*%
X104785000Y-52506198D03*
X104785000Y-53776198D03*
X104785000Y-55046198D03*
X104785000Y-56316198D03*
X109735000Y-56316198D03*
X109735000Y-55046198D03*
X109735000Y-53776198D03*
X109735000Y-52506198D03*
%TD*%
D18*
%TO.C,D3*%
X122597500Y-66323698D03*
X122597500Y-64748698D03*
%TD*%
D19*
%TO.C,D1*%
X120197500Y-62848698D03*
X120197500Y-59548698D03*
%TD*%
D20*
%TO.C,C1*%
X122631200Y-56401000D03*
X122631200Y-54851000D03*
%TD*%
D21*
%TO.C,R12*%
X84315800Y-71729600D03*
X85965800Y-71729600D03*
%TD*%
%TO.C,R9*%
X85457000Y-53548198D03*
X87107000Y-53548198D03*
%TD*%
D22*
%TO.C,K1*%
X116840000Y-60446198D03*
X111760000Y-60446198D03*
X109220000Y-60446198D03*
X106680000Y-60446198D03*
X106680000Y-67736198D03*
X109220000Y-67736198D03*
X111760000Y-67736198D03*
X116840000Y-67736198D03*
%TD*%
D16*
%TO.C,U1*%
X92675000Y-68651198D03*
X95215000Y-68651198D03*
X97755000Y-68651198D03*
X100295000Y-68651198D03*
X100295000Y-59121198D03*
X97755000Y-59121198D03*
X95215000Y-59121198D03*
X92675000Y-59121198D03*
%TD*%
D13*
%TO.C,C6*%
X90867000Y-53040198D03*
X89317000Y-53040198D03*
%TD*%
D11*
%TO.C,R2*%
X120956200Y-58151000D03*
X120956200Y-56501000D03*
%TD*%
D21*
%TO.C,R7*%
X95934000Y-53548198D03*
X97584000Y-53548198D03*
%TD*%
D10*
%TO.C,R13*%
X87107000Y-56596198D03*
X85457000Y-56596198D03*
%TD*%
D14*
%TO.C,C7*%
X89330000Y-55059198D03*
X89330000Y-56609198D03*
%TD*%
M02*
